Source-HROTn_VROTd_SLENx_SANGx.ufo
<glyph name="exclam" format="2">
  <advance width="205"/>
  <unicode hex="0021"/>
  <outline>
    <contour>
      <point x="87" y="185" type="curve" name="UAXKFEJM"/>
      <point x="119" y="193" name="JZTQKWYQ"/>
      <point x="159" y="193" name="RJTDFYQY"/>
      <point x="203" y="185" type="curve" name="JLGIOBAH"/>
      <point x="185" y="357" name="IRLRDUYS"/>
      <point x="217" y="460" name="RQQKQTGE"/>
      <point x="300" y="488" type="curve" name="JWFWBWSW"/>
      <point x="252" y="498" name="YOEJJLCK"/>
      <point x="210" y="498" name="UMWPQGKG"/>
      <point x="176" y="488" type="curve" name="GDEEWQYC"/>
      <point x="96" y="460" name="EBJJZEHF"/>
      <point x="65" y="357" name="BXXBTHPD"/>
    </contour>
    <contour>
      <point x="233" y="-200" type="curve" name="OODAGBVF"/>
      <point x="273" y="-200" name="ZPPAXNKC"/>
      <point x="287" y="-125" name="RMONFRVX"/>
      <point x="265" y="-36" type="curve" smooth="yes" name="VXVRKXLC"/>
      <point x="243" y="51" name="XOPGMKUX"/>
      <point x="191" y="123" name="LRDJWFZK"/>
      <point x="151" y="123" type="curve" smooth="yes" name="YTRAWADO"/>
      <point x="109" y="123" name="MNWYLZWF"/>
      <point x="93" y="52" name="PVZUHHUI"/>
      <point x="116" y="-36" type="curve" smooth="yes" name="WHJTEWIT"/>
      <point x="138" y="-125" name="NGNRPXOQ"/>
      <point x="191" y="-200" name="EQRVHCZD"/>
      <point x="233" y="-200" type="curve" name="LLRNFALR"/>
      <point x="233" y="-200" name="JUAKAZAP"/>
      <point x="233" y="-200" name="LUBASZZH"/>
    </contour>
  </outline>
</glyph>
<glyph name="ampersand" format="2">
  <advance width="448"/>
  <unicode hex="0026"/>
  <outline>
    <contour>
      <point x="444" y="127" type="curve" name="UWCKJGGV"/>
      <point x="439" y="158" name="WYWGSPAE"/>
      <point x="435" y="188" name="GHFTXBWD"/>
      <point x="433" y="215" type="curve" name="NFKSIWHS"/>
      <point x="449" y="212" name="TCALRSFM"/>
      <point x="467" y="208" name="WCRRULJN"/>
      <point x="484" y="204" type="curve" name="XYMKGKMO"/>
      <point x="479" y="260" name="FWVQQHYF"/>
      <point x="479" y="310" name="LIGUTPGQ"/>
      <point x="486" y="349" type="curve" name="LPGOCSIS"/>
      <point x="469" y="353" name="VQDQBOVE"/>
      <point x="451" y="357" name="XTHMHXTS"/>
      <point x="435" y="360" type="curve" name="LOGAPJBX"/>
      <point x="438" y="379" name="ZKKIGVZC"/>
      <point x="442" y="398" name="HFRVQRCB"/>
      <point x="448" y="414" type="curve" name="XYMFOMIH"/>
      <point x="404" y="422" name="TQOBWPEN"/>
      <point x="360" y="428" name="UWNOPFPT"/>
      <point x="320" y="430" type="curve" name="USHRPNIF"/>
      <point x="314" y="415" name="RZAPTRNM"/>
      <point x="309" y="397" name="YEICMZMJ"/>
      <point x="306" y="377" type="curve" name="JKHMQELL"/>
      <point x="233" y="381" name="GGASUPXB"/>
      <point x="196" y="387" name="XFZBRVTV"/>
      <point x="206" y="415" type="curve" smooth="yes" name="FPUJDRAI"/>
      <point x="219" y="459" name="XNRWMJJM"/>
      <point x="309" y="466" name="EOXDTIVS"/>
      <point x="387" y="435" type="curve" name="DLJFTQAN"/>
      <point x="401" y="468" name="WCCSDGDA"/>
      <point x="424" y="491" name="YDVAOPDW"/>
      <point x="453" y="504" type="curve" name="AIDYSDTN"/>
      <point x="325" y="535" name="ZSPZNRAP"/>
      <point x="147" y="520" name="TIMWABYF"/>
      <point x="104" y="404" type="curve" smooth="yes" name="JXJOMDGO"/>
      <point x="89" y="365" name="ETFHYWLE"/>
      <point x="97" y="325" name="MLTYLTDQ"/>
      <point x="127" y="295" type="curve" name="DLKZRPSD"/>
      <point x="89" y="248" name="MZRMIFPB"/>
      <point x="76" y="179" name="USUMWQIB"/>
      <point x="93" y="88" type="curve" smooth="yes" name="JXQQPHMY"/>
      <point x="124" y="-79" name="TJDADQSW"/>
      <point x="230" y="-198" name="QZKQZTNP"/>
      <point x="331" y="-194" type="curve" smooth="yes" name="VFFCJOTL"/>
      <point x="438" y="-190" name="PLDXEKLY"/>
      <point x="473" y="-49" name="ORSVLLSX"/>
      <point x="444" y="127" type="curve" name="TDMWLAYD"/>
      <point x="444" y="127" name="IFUYEGZX"/>
      <point x="444" y="127" name="ARZRNAPQ"/>
    </contour>
    <contour>
      <point x="194" y="145" type="curve" name="SIYQHMWV"/>
      <point x="182" y="221" name="UNLEGDCB"/>
      <point x="223" y="236" name="GSZHTEJL"/>
      <point x="304" y="232" type="curve" name="CTKZPHHW"/>
      <point x="306" y="210" name="PKDJAHMW"/>
      <point x="309" y="186" name="IMOSHBSH"/>
      <point x="312" y="162" type="curve" smooth="yes" name="BMCAUHNY"/>
      <point x="322" y="98" name="MJAIIQPY"/>
      <point x="305" y="58" name="HATVCKWL"/>
      <point x="266" y="57" type="curve" smooth="yes" name="RJSPBNLG"/>
      <point x="231" y="55" name="PZTFEKSE"/>
      <point x="202" y="95" name="CDWVHRZQ"/>
      <point x="194" y="145" type="curve" name="TNBJYVAD"/>
      <point x="194" y="145" name="GQSRNTNI"/>
      <point x="194" y="145" name="YRVSOBZF"/>
    </contour>
  </outline>
</glyph>
<glyph name="one" format="2">
  <advance width="267"/>
  <unicode hex="0031"/>
  <outline>
    <contour>
      <point x="359" y="496" type="curve" name="TZHMIQAO"/>
      <point x="266" y="511" name="QXYJUNFS"/>
      <point x="185" y="505" name="GTMQRQYO"/>
      <point x="120" y="479" type="curve" name="BKBOAMJN"/>
      <point x="96" y="460" name="HCYUTGCJ"/>
      <point x="78" y="430" name="TUNCTKDK"/>
      <point x="67" y="393" type="curve" name="CFCZIOEA"/>
      <point x="91" y="406" name="GOOCIAMZ"/>
      <point x="117" y="417" name="DRZHUPOM"/>
      <point x="145" y="424" type="curve" name="PRUODIOG"/>
      <point x="107" y="316" name="LSNPALNA"/>
      <point x="134" y="110" name="FMFJLMIG"/>
      <point x="226" y="-182" type="curve" name="KNQXVFRB"/>
      <point x="265" y="-180" name="LJYAGQOM"/>
      <point x="310" y="-184" name="ZRHTMFIB"/>
      <point x="359" y="-196" type="curve" name="IOTIIPVL"/>
      <point x="231" y="214" name="NNWLCHWV"/>
      <point x="231" y="450" name="IYPPKQBK"/>
    </contour>
  </outline>
</glyph>
<glyph name="equal" format="2">
  <advance width="346"/>
  <unicode hex="003D"/>
  <outline>
    <contour>
      <point x="95" y="257" type="curve" name="GPRTIKJU"/>
      <point x="171" y="284" name="IFIMKFKZ"/>
      <point x="270" y="284" name="PSYGJSOE"/>
      <point x="384" y="257" type="curve" name="UIOOFTKJ"/>
      <point x="391" y="299" name="ZRIQNQIC"/>
      <point x="409" y="326" name="THNZAZEV"/>
      <point x="437" y="337" type="curve" name="YQFJSPOD"/>
      <point x="323" y="364" name="MITTJEAV"/>
      <point x="224" y="364" name="VHWFGBYK"/>
      <point x="148" y="337" type="curve" name="SKRUEEEN"/>
      <point x="119" y="326" name="GIZWEMCT"/>
      <point x="101" y="299" name="UCIUWVMF"/>
    </contour>
    <contour>
      <point x="148" y="-58" type="curve" name="GEFFZMQW"/>
      <point x="224" y="-31" name="QGIIIDVZ"/>
      <point x="323" y="-31" name="UCXZAZZL"/>
      <point x="437" y="-58" type="curve" name="NBCEXZDP"/>
      <point x="409" y="33" name="HUHFWPAL"/>
      <point x="391" y="112" name="SLWNXAFA"/>
      <point x="384" y="172" type="curve" name="OEFVTZTP"/>
      <point x="270" y="199" name="WGOFYPWV"/>
      <point x="171" y="199" name="ZCKDWHJQ"/>
      <point x="95" y="172" type="curve" name="MGJBCIOP"/>
      <point x="101" y="112" name="BMJBIMBV"/>
      <point x="119" y="33" name="JJJKMNUI"/>
    </contour>
  </outline>
</glyph>
<glyph name="A" format="2">
  <advance width="471"/>
  <unicode hex="0041"/>
  <outline>
    <contour>
      <point x="147" y="-204" type="curve" name="VSHALMGC"/>
      <point x="181" y="-193" name="WSVKSJHD"/>
      <point x="217" y="-184" name="PRFCIODM"/>
      <point x="254" y="-179" type="curve" name="JYCGCYYN"/>
      <point x="238" y="-100" name="KXFJSKKY"/>
      <point x="226" y="-28" name="KLUQNRFV"/>
      <point x="220" y="37" type="curve" name="UMRJARCX"/>
      <point x="269" y="43" name="NJOBXEGL"/>
      <point x="324" y="43" name="LHQYFAME"/>
      <point x="382" y="37" type="curve" name="XUPZKIVD"/>
      <point x="406" y="-28" name="ASHYXYAB"/>
      <point x="435" y="-100" name="WRRUGEOT"/>
      <point x="470" y="-179" type="curve" name="OXYNFWVH"/>
      <point x="514" y="-184" name="GIFICFXT"/>
      <point x="563" y="-193" name="NNGAJFQK"/>
      <point x="612" y="-204" type="curve" name="JHBKOGTE"/>
      <point x="427" y="213" name="VGBXJRGV"/>
      <point x="370" y="454" name="HGSPTSWA"/>
      <point x="444" y="504" type="curve" name="JSDVVQLS"/>
      <point x="384" y="510" name="ZKROCOOS"/>
      <point x="327" y="510" name="BFJNYVVN"/>
      <point x="275" y="504" type="curve" name="DSLSPMIN"/>
      <point x="104" y="454" name="FEBOBFIY"/>
      <point x="60" y="213" name="YYKGVVQI"/>
    </contour>
    <contour>
      <point x="215" y="236" type="curve" name="DKNCFITY"/>
      <point x="223" y="327" name="WIIRQLBW"/>
      <point x="248" y="397" name="LBPCAXFS"/>
      <point x="287" y="444" type="curve" name="OHLZNRVZ"/>
      <point x="280" y="397" name="HEMNQQMC"/>
      <point x="290" y="328" name="FJGHROUE"/>
      <point x="315" y="236" type="curve" name="LUQYXVRA"/>
      <point x="280" y="238" name="WQNSCEAO"/>
      <point x="247" y="238" name="DUARTBAJ"/>
    </contour>
  </outline>
</glyph>
<glyph name="C" format="2">
  <advance width="416"/>
  <unicode hex="0043"/>
  <anchor x="254.0" y="517" name="center"/>
  <outline>
    <contour>
      <point x="64" y="278" type="curve" name="IVHAQPIE"/>
      <point x="64" y="22" name="ZXBMTVRH"/>
      <point x="307" y="-266" name="XWMQTRVA"/>
      <point x="508" y="-173" type="curve" name="FTCQKYXD"/>
      <point x="478" y="-75" name="HEWERGDG"/>
      <point x="455" y="14" name="XPFFQJFR"/>
      <point x="441" y="90" type="curve" name="JRKPBQWS"/>
      <point x="326" y="21" name="XHOODBZS"/>
      <point x="175" y="120" name="OSQCDQLO"/>
      <point x="175" y="301" type="curve" smooth="yes" name="RDQGGYDD"/>
      <point x="175" y="482" name="RTSNBEIU"/>
      <point x="326" y="487" name="NQPZGFTB"/>
      <point x="441" y="408" type="curve" name="VNVGUPGI"/>
      <point x="455" y="444" name="HERYZNUV"/>
      <point x="478" y="469" name="WKEVDROD"/>
      <point x="508" y="483" type="curve" name="LKUTTBMC"/>
      <point x="307" y="564" name="RQUKTEGG"/>
      <point x="64" y="534" name="FIXMFTEL"/>
      <point x="64" y="278" type="curve" name="CEHJKYUD"/>
      <point x="64" y="278" name="HARSATJI"/>
      <point x="64" y="278" name="AHRGHNMB"/>
    </contour>
  </outline>
</glyph>
<glyph name="E" format="2">
  <advance width="374"/>
  <unicode hex="0045"/>
  <outline>
    <contour>
      <point x="186" y="-198" type="curve" name="UKGGMFDY"/>
      <point x="263" y="-171" name="NPPVOJKJ"/>
      <point x="360" y="-171" name="FPJDRGEE"/>
      <point x="475" y="-198" type="curve" name="SRHEPAKV"/>
      <point x="446" y="-106" name="ULTCNFKI"/>
      <point x="422" y="-19" name="CKKAPEUZ"/>
      <point x="407" y="54" type="curve" name="QYJRGIHG"/>
      <point x="342" y="69" name="DELZIHAM"/>
      <point x="281" y="76" name="RMYHXQYC"/>
      <point x="228" y="74" type="curve" name="HCYUJINQ"/>
      <point x="216" y="130" name="SQBXIOMK"/>
      <point x="208" y="182" name="RQZYLUQU"/>
      <point x="203" y="227" type="curve" name="ITMGMGSL"/>
      <point x="251" y="229" name="VVYVJIFY"/>
      <point x="307" y="223" name="QMEQBYZS"/>
      <point x="365" y="211" type="curve" name="CAWJWFLK"/>
      <point x="360" y="269" name="YAQQAFUM"/>
      <point x="361" y="318" name="JLUOGTVC"/>
      <point x="368" y="358" type="curve" name="HTVCMYHI"/>
      <point x="310" y="370" name="ZWPOWAJW"/>
      <point x="254" y="376" name="CPZOIMOJ"/>
      <point x="206" y="374" type="curve" name="OUSIYIMI"/>
      <point x="210" y="401" name="NVUQNPCA"/>
      <point x="218" y="423" name="DRWSJXPI"/>
      <point x="228" y="442" type="curve" name="EOIHMBHU"/>
      <point x="281" y="444" name="MSAUUBPO"/>
      <point x="342" y="437" name="CUDUWQVK"/>
      <point x="407" y="422" type="curve" name="DKLCXPWU"/>
      <point x="423" y="450" name="JFYRTTQK"/>
      <point x="446" y="472" name="AUJCCIWT"/>
      <point x="475" y="482" type="curve" name="XTRCCSPD"/>
      <point x="360" y="509" name="QNVKMRXH"/>
      <point x="263" y="509" name="XCGBFNPI"/>
      <point x="186" y="482" type="curve" name="SVNLFKYC"/>
      <point x="60" y="437" name="FKKRMJYU"/>
      <point x="60" y="205" name="BZACQLIQ"/>
    </contour>
  </outline>
</glyph>
<glyph name="S" format="2">
  <advance width="380"/>
  <unicode hex="0053"/>
  <outline>
    <contour>
      <point x="421" y="121" type="curve" name="GOWVFSLC"/>
      <point x="370" y="426" name="GPZJYNUP"/>
      <point x="182" y="362" name="FIJXTQNX"/>
      <point x="200" y="418" type="curve" smooth="yes" name="QKUZEHLZ"/>
      <point x="213" y="455" name="IAQRQFHB"/>
      <point x="294" y="471" name="NNGZXVNX"/>
      <point x="395" y="409" type="curve" name="FRTKKMRA"/>
      <point x="409" y="446" name="BRGCYBOJ"/>
      <point x="432" y="472" name="BJQKDUAF"/>
      <point x="462" y="486" type="curve" name="QXXCDWXQ"/>
      <point x="310" y="541" name="QUSBXJEZ"/>
      <point x="128" y="518" name="LGUZMNBL"/>
      <point x="89" y="392" type="curve" smooth="yes" name="OSAHABYC"/>
      <point x="39" y="240" name="OEDCLVPP"/>
      <point x="260" y="255" name="XVFXUYBZ"/>
      <point x="279" y="143" type="curve" smooth="yes" name="ZZYAMNDR"/>
      <point x="292" y="65" name="FNSAGJTQ"/>
      <point x="200" y="59" name="WAXVUVCM"/>
      <point x="97" y="105" type="curve" name="BOJSUZJZ"/>
      <point x="111" y="29" name="FHVZRCLO"/>
      <point x="133" y="-60" name="USEJHYVF"/>
      <point x="162" y="-159" type="curve" name="QMIITOAI"/>
      <point x="324" y="-224" name="FIARMZOO"/>
      <point x="466" y="-147" name="MWQUBNKO"/>
      <point x="421" y="121" type="curve" name="YDWHJJCK"/>
      <point x="421" y="121" name="LDKAOGPU"/>
      <point x="421" y="121" name="TTUTSSFK"/>
    </contour>
  </outline>
</glyph>
<glyph name="T" format="2">
  <advance width="384"/>
  <unicode hex="0054"/>
  <outline>
    <contour>
      <point x="257" y="-179" type="curve" name="OBIABVVX"/>
      <point x="295" y="-175" name="WYNERBBH"/>
      <point x="337" y="-175" name="ATUMRLCT"/>
      <point x="381" y="-179" type="curve" name="JSDQOSPP"/>
      <point x="284" y="130" name="RKCGFNJC"/>
      <point x="261" y="340" name="NHBMMFRU"/>
      <point x="312" y="439" type="curve" name="BMWQQVIR"/>
      <point x="350" y="436" name="HBBEPWDA"/>
      <point x="392" y="429" name="CMTXLWCQ"/>
      <point x="435" y="419" type="curve" name="HEOALRDC"/>
      <point x="451" y="448" name="QDPKQWDE"/>
      <point x="474" y="470" name="ZKKHBBTL"/>
      <point x="504" y="480" type="curve" name="XBUTZFLN"/>
      <point x="369" y="512" name="UWCFMZBG"/>
      <point x="253" y="512" name="JRTUATOX"/>
      <point x="163" y="480" type="curve" name="AYVADWCS"/>
      <point x="133" y="470" name="POSWLZLA"/>
      <point x="110" y="448" name="NKJWKFGP"/>
      <point x="94" y="419" type="curve" name="BBHZJRQN"/>
      <point x="123" y="429" name="WJIVAQSO"/>
      <point x="155" y="436" name="UXKDJXYV"/>
      <point x="188" y="440" type="curve" name="DMZGWWUH"/>
      <point x="136" y="341" name="ERUTCPFJ"/>
      <point x="159" y="131" name="LKDERXDK"/>
    </contour>
  </outline>
</glyph>
<glyph name="U" format="2">
  <advance width="475"/>
  <unicode hex="0055"/>
  <outline>
    <contour>
      <point x="487" y="187" type="curve" name="UIGHWCWX"/>
      <point x="470" y="350" name="SOCBKDQP"/>
      <point x="502" y="449" name="ZNJFGSNK"/>
      <point x="581" y="476" type="curve" name="OXPLJVWZ"/>
      <point x="531" y="488" name="CWOLYFHI"/>
      <point x="484" y="496" name="YCRFFCUK"/>
      <point x="439" y="501" type="curve" name="BSNVRCQU"/>
      <point x="362" y="473" name="JOSXRODP"/>
      <point x="330" y="379" name="CVDMBBAO"/>
      <point x="345" y="221" type="curve" smooth="yes" name="HWUZLNKJ"/>
      <point x="352" y="138" name="MGUFWDWO"/>
      <point x="335" y="70" name="DODFTLYC"/>
      <point x="292" y="70" type="curve" smooth="yes" name="GPFYEMXX"/>
      <point x="247" y="70" name="FJHASJOF"/>
      <point x="202" y="138" name="KWUDXPCH"/>
      <point x="194" y="221" type="curve" smooth="yes" name="ALMVOWDH"/>
      <point x="179" y="379" name="VHJSIGYP"/>
      <point x="212" y="473" name="GFASUHBN"/>
      <point x="289" y="501" type="curve" name="REOEVKYN"/>
      <point x="251" y="496" name="ZUPGWWBB"/>
      <point x="215" y="488" name="SSPQXHVR"/>
      <point x="183" y="476" type="curve" name="FDHBTJCF"/>
      <point x="104" y="448" name="NLAULCIJ"/>
      <point x="72" y="349" name="WIKFBKDS"/>
      <point x="89" y="185" type="curve" smooth="yes" name="SZBIKCBB"/>
      <point x="109" y="-11" name="GPKTGGRY"/>
      <point x="246" y="-192" name="JQRVWUHJ"/>
      <point x="360" y="-191" type="curve" smooth="yes" name="AATCKRXI"/>
      <point x="473" y="-191" name="GDGZQEQA"/>
      <point x="507" y="-8" name="KTOHWVRC"/>
      <point x="487" y="187" type="curve" name="MSJBTERL"/>
      <point x="487" y="187" name="NPAPDWJJ"/>
      <point x="487" y="187" name="IMOUPKXX"/>
    </contour>
  </outline>
</glyph>
<glyph name="X" format="2">
  <advance width="466"/>
  <unicode hex="0058"/>
  <outline>
    <contour>
      <point x="159" y="479" type="curve" name="UXTYUNSN"/>
      <point x="135" y="469" name="RKCNYTMH"/>
      <point x="142" y="411" name="YUPXXORQ"/>
      <point x="184" y="309" type="curve" name="OSXKEZIC"/>
      <point x="136" y="192" name="IAVNOVYA"/>
      <point x="126" y="17" name="JHYZEYKI"/>
      <point x="152" y="-204" type="curve" name="CGCSAGBD"/>
      <point x="188" y="-191" name="CIWJGUCM"/>
      <point x="228" y="-182" name="EFYOVNKV"/>
      <point x="270" y="-177" type="curve" name="YSKCLJQL"/>
      <point x="257" y="-48" name="LOYRGQUI"/>
      <point x="258" y="66" name="MRMZESQQ"/>
      <point x="272" y="157" type="curve" name="WWZSWSNA"/>
      <point x="315" y="66" name="EYXXONOL"/>
      <point x="374" y="-48" name="AHMUHDWG"/>
      <point x="444" y="-177" type="curve" name="VYFIYFMA"/>
      <point x="494" y="-182" name="TTWBENUX"/>
      <point x="548" y="-191" name="HXHDIHUV"/>
      <point x="603" y="-204" type="curve" name="BVMCKLOC"/>
      <point x="480" y="18" name="SWYDPUVC"/>
      <point x="390" y="194" name="ICUYOSOG"/>
      <point x="340" y="312" type="curve" name="GEHVVDAW"/>
      <point x="392" y="412" name="MTMAHDFK"/>
      <point x="478" y="469" name="EZPSQTIA"/>
      <point x="594" y="478" type="curve" name="BPIOECAV"/>
      <point x="541" y="490" name="DOHPPAKC"/>
      <point x="488" y="499" name="SUXTVVMA"/>
      <point x="439" y="504" type="curve" name="OOZMSNXC"/>
      <point x="375" y="494" name="RLGSMMUF"/>
      <point x="321" y="468" name="WBOKYIEB"/>
      <point x="280" y="426" type="curve" name="TVDBJYAR"/>
      <point x="269" y="467" name="ANSEOJUB"/>
      <point x="269" y="494" name="MWZQFRJJ"/>
      <point x="280" y="504" type="curve" name="JUBILFQV"/>
      <point x="237" y="500" name="KTJCVHDH"/>
      <point x="196" y="491" name="NHAQMIPB"/>
    </contour>
  </outline>
</glyph>
<glyph name="Z" format="2">
  <advance width="413"/>
  <unicode hex="005A"/>
  <outline>
    <contour>
      <point x="176" y="-200" type="curve" name="KEIJZQBM"/>
      <point x="267" y="-168" name="KVJJPDWE"/>
      <point x="384" y="-168" name="DUQXEVIA"/>
      <point x="519" y="-200" type="curve" name="FBHEFION"/>
      <point x="490" y="-108" name="LXHYFDLG"/>
      <point x="468" y="-24" name="BHZIRUOO"/>
      <point x="452" y="49" type="curve" name="YHZLCTBD"/>
      <point x="374" y="67" name="PESRBLMW"/>
      <point x="300" y="76" name="YKEQJOKF"/>
      <point x="237" y="73" type="curve" name="BPCIKRVW"/>
      <point x="263" y="252" name="FXNYUUBP"/>
      <point x="336" y="370" name="JQSHHPMC"/>
      <point x="452" y="421" type="curve" name="MGRADZPB"/>
      <point x="468" y="450" name="BOQRIJIQ"/>
      <point x="490" y="470" name="GGZFWLYJ"/>
      <point x="519" y="480" type="curve" name="SDUKXMSW"/>
      <point x="384" y="512" name="SLENFYAP"/>
      <point x="267" y="512" name="PJFTZHRU"/>
      <point x="176" y="480" type="curve" name="UFIEEMCM"/>
      <point x="147" y="470" name="HJXBPESF"/>
      <point x="125" y="450" name="UOCVBKAO"/>
      <point x="109" y="421" type="curve" name="UOHCLYSN"/>
      <point x="162" y="439" name="BXBDZHWQ"/>
      <point x="223" y="448" name="NORWPOQY"/>
      <point x="290" y="445" type="curve" name="DHWBFQLS"/>
      <point x="186" y="378" name="ALHRMKXG"/>
      <point x="123" y="244" name="SFEUYXQB"/>
      <point x="109" y="49" type="curve" name="HGVYCXVN"/>
      <point x="125" y="-24" name="XVDBVDMU"/>
      <point x="147" y="-108" name="HCPEXEDQ"/>
    </contour>
  </outline>
</glyph>
<glyph name="backslash" format="2">
  <advance width="346"/>
  <unicode hex="005C"/>
  <outline>
    <contour>
      <point x="501" y="-384" type="curve" name="QXIWTKHO"/>
      <point x="244" y="188" name="XYXPOLDW"/>
      <point x="167" y="511" name="TRGPZGBD"/>
      <point x="274" y="567" type="curve" name="PJTBOMCC"/>
      <point x="238" y="564" name="SPNQKQAQ"/>
      <point x="203" y="556" name="GSGRLACX"/>
      <point x="172" y="546" type="curve" name="BEKEQUNS"/>
      <point x="55" y="504" name="URNGRPJI"/>
      <point x="122" y="195" name="ZNZOLOUT"/>
      <point x="370" y="-363" type="curve" name="PHPQQOEG"/>
      <point x="410" y="-366" name="KUJNIPET"/>
      <point x="456" y="-374" name="TSVTAHGV"/>
    </contour>
  </outline>
</glyph>
<glyph name="grave" format="2">
  <advance width="288"/>
  <unicode hex="0060"/>
  <anchor x="-60.0" y="517" name="top"/>
  <anchor x="194.0" y="517" name="center"/>
  <outline>
    <contour>
      <point x="342" y="438" type="curve" name="QKLOQYYS"/>
      <point x="275" y="562" name="EKMJABDY"/>
      <point x="246" y="632" name="ONUFSLSF"/>
      <point x="256" y="647" type="curve" name="QPUOPUTP"/>
      <point x="212" y="650" name="WVCSZZSQ"/>
      <point x="172" y="645" name="STXECLNL"/>
      <point x="138" y="634" type="curve" name="ZSEZFOQR"/>
      <point x="127" y="629" name="WZKTZVJM"/>
      <point x="156" y="568" name="KDAEIIAP"/>
      <point x="223" y="452" type="curve" name="EJOKDFUQ"/>
      <point x="259" y="453" name="YQSBGQFD"/>
      <point x="299" y="448" name="DBAEONDD"/>
    </contour>
  </outline>
</glyph>
<glyph name="k" format="2">
  <advance width="400"/>
  <unicode hex="006B"/>
  <outline>
    <contour>
      <point x="184" y="-206" type="curve" name="UAHUNZAY"/>
      <point x="215" y="-195" name="HGOTTMPH"/>
      <point x="249" y="-187" name="JIFUMSCD"/>
      <point x="285" y="-183" type="curve" name="JEZKVTKR"/>
      <point x="245" y="-55" name="EUEBYAOH"/>
      <point x="216" y="58" name="FHUHMWJY"/>
      <point x="199" y="153" type="curve" name="IBYLLBPF"/>
      <point x="247" y="63" name="ZPEKBMNN"/>
      <point x="313" y="-51" name="XDBASUEF"/>
      <point x="390" y="-181" type="curve" name="QUXXMCJM"/>
      <point x="438" y="-184" name="FUUHAKKG"/>
      <point x="491" y="-193" name="LQICOFVZ"/>
      <point x="546" y="-206" type="curve" name="RMTSBMXH"/>
      <point x="438" y="-27" name="NJXFSMXN"/>
      <point x="350" y="124" name="LHUUKZJI"/>
      <point x="290" y="235" type="curve" name="WCKNJDPB"/>
      <point x="325" y="327" name="FXYCAFMY"/>
      <point x="380" y="394" name="OAAXCREI"/>
      <point x="452" y="434" type="curve" name="NASSYPPQ"/>
      <point x="399" y="446" name="IIHCVLSK"/>
      <point x="347" y="454" name="RGLSDMCZ"/>
      <point x="300" y="457" type="curve" name="FAJLDQMB"/>
      <point x="250" y="418" name="TSLJUDEH"/>
      <point x="211" y="363" name="QYEDSYTP"/>
      <point x="182" y="294" type="curve" name="DSWZWTDA"/>
      <point x="176" y="434" name="PKJZMXVJ"/>
      <point x="211" y="521" name="XNBLDWJV"/>
      <point x="285" y="547" type="curve" name="BJZYFAAA"/>
      <point x="249" y="543" name="PUEBCOVS"/>
      <point x="215" y="535" name="VPCXSDMJ"/>
      <point x="184" y="524" type="curve" name="BOCHLGBP"/>
      <point x="48" y="476" name="ARQFNMTK"/>
      <point x="48" y="228" name="HBPSJSZA"/>
    </contour>
  </outline>
</glyph>
<glyph name="o" format="2">
  <advance width="424"/>
  <unicode hex="006F"/>
  <anchor x="-88.0" y="527" name="top"/>
  <outline>
    <contour>
      <point x="327" y="-178" type="curve" name="OBRLAGIP"/>
      <point x="437" y="-178" name="TPHQIAYG"/>
      <point x="460" y="24" name="SLLBNUVD"/>
      <point x="461" y="180" type="curve" smooth="yes" name="EZCHJDAO"/>
      <point x="461" y="338" name="ILPENCCC"/>
      <point x="437" y="371" name="WGWJORXX"/>
      <point x="327" y="371" type="curve" smooth="yes" name="NDHPRJLU"/>
      <point x="216" y="371" name="TPBVQRHA"/>
      <point x="75" y="338" name="DWLOYQJU"/>
      <point x="75" y="180" type="curve" smooth="yes" name="JNYFYTAF"/>
      <point x="75" y="23" name="ZINFAKCE"/>
      <point x="216" y="-178" name="JGKCNMDJ"/>
      <point x="327" y="-178" type="curve" name="DXKKKRFR"/>
      <point x="327" y="-178" name="KSQLQPNM"/>
      <point x="327" y="-178" name="KVFJJSVA"/>
    </contour>
    <contour>
      <point x="264" y="59" type="curve" name="BXLTMDJC"/>
      <point x="218" y="59" name="ZDLXLSSH"/>
      <point x="175" y="129" name="YCPIOSCV"/>
      <point x="175" y="203" type="curve" smooth="yes" name="AETUUHTY"/>
      <point x="175" y="277" name="WPBQZNDR"/>
      <point x="218" y="310" name="ANBDHKLY"/>
      <point x="264" y="310" type="curve" smooth="yes" name="ILLYSWRE"/>
      <point x="310" y="310" name="TRLFCPDD"/>
      <point x="328" y="277" name="YBLBCMDS"/>
      <point x="328" y="203" type="curve" smooth="yes" name="WWJSQACX"/>
      <point x="328" y="129" name="PEPBFYJU"/>
      <point x="310" y="59" name="UOEGNEXM"/>
      <point x="264" y="59" type="curve" name="LYACURGU"/>
      <point x="264" y="59" name="XAUXYMUV"/>
      <point x="264" y="59" name="COGVPVHT"/>
    </contour>
  </outline>
</glyph>
<glyph name="s" format="2">
  <advance width="335"/>
  <unicode hex="0073"/>
  <outline>
    <contour>
      <point x="381" y="71" type="curve" name="TAEXMTFL"/>
      <point x="342" y="318" name="CYKGKVQF"/>
      <point x="184" y="256" name="AKVQSPGJ"/>
      <point x="197" y="293" type="curve" smooth="yes" name="MFYMDBLA"/>
      <point x="206" y="321" name="PGBLZIOY"/>
      <point x="273" y="330" name="XRJCHCCM"/>
      <point x="356" y="271" type="curve" name="TPEGXNSH"/>
      <point x="367" y="307" name="QWATEVCN"/>
      <point x="385" y="335" name="MUVKDNXQ"/>
      <point x="412" y="348" type="curve" name="SSGGVXOB"/>
      <point x="286" y="397" name="LSBQIANA"/>
      <point x="120" y="375" name="UTMLJAVY"/>
      <point x="90" y="268" type="curve" smooth="yes" name="ISODJJKD"/>
      <point x="53" y="134" name="QMVEVJOC"/>
      <point x="239" y="157" name="ARVDYBUD"/>
      <point x="251" y="83" type="curve" smooth="yes" name="KCSIMBGB"/>
      <point x="261" y="21" name="LIOVSIZL"/>
      <point x="168" y="37" name="UXRYFJLV"/>
      <point x="94" y="79" type="curve" name="HBAQFMKO"/>
      <point x="104" y="14" name="HHIJQLCX"/>
      <point x="123" y="-67" name="OGXHTLPL"/>
      <point x="149" y="-155" type="curve" name="ZUKMSFVA"/>
      <point x="292" y="-216" name="YESEPBGS"/>
      <point x="415" y="-143" name="ZDVQYTHC"/>
      <point x="381" y="71" type="curve" name="OYGDPNYB"/>
      <point x="381" y="71" name="OQNUPYCZ"/>
      <point x="381" y="71" name="EDQXGJNQ"/>
    </contour>
  </outline>
</glyph>
<glyph name="t" format="2">
  <advance width="277"/>
  <unicode hex="0074"/>
  <outline>
    <contour>
      <point x="205" y="-182" type="curve" name="DNFLIAJZ"/>
      <point x="239" y="-176" name="NMYIVIVK"/>
      <point x="280" y="-176" name="JGEDBOKO"/>
      <point x="321" y="-180" type="curve" name="RIUAPESH"/>
      <point x="252" y="39" name="VKQXFPIH"/>
      <point x="221" y="208" name="STTARAQO"/>
      <point x="230" y="317" type="curve" name="NYWHBCYO"/>
      <point x="253" y="315" name="ODVWKBSN"/>
      <point x="280" y="310" name="PZCNSMDX"/>
      <point x="306" y="304" type="curve" name="EGNGHIDL"/>
      <point x="309" y="348" name="ROVYRWED"/>
      <point x="319" y="384" name="RODMORGJ"/>
      <point x="335" y="410" type="curve" name="PWGROJQF"/>
      <point x="309" y="416" name="SXTVDIAR"/>
      <point x="283" y="421" name="WWHSTGID"/>
      <point x="259" y="424" type="curve" name="RBWUEOPT"/>
      <point x="275" y="448" name="NLCZATWS"/>
      <point x="295" y="465" name="KXZCUXWQ"/>
      <point x="321" y="475" type="curve" name="CIZJGVYW"/>
      <point x="280" y="479" name="CLPLOHES"/>
      <point x="239" y="479" name="ISZYSUGD"/>
      <point x="205" y="473" type="curve" name="SRMMJMPX"/>
      <point x="179" y="464" name="XNFCGUGS"/>
      <point x="159" y="447" name="TBHPHBIE"/>
      <point x="143" y="423" type="curve" name="AKAVYUJA"/>
      <point x="126" y="420" name="VHMMCOAG"/>
      <point x="110" y="416" name="PPQENDCV"/>
      <point x="95" y="410" type="curve" name="UZWKHFHH"/>
      <point x="79" y="384" name="CENPBZJJ"/>
      <point x="69" y="348" name="NKPHFYRB"/>
      <point x="65" y="304" type="curve" name="HQSYTWET"/>
      <point x="81" y="309" name="XZIRMDHM"/>
      <point x="97" y="313" name="UQLQJDIT"/>
      <point x="114" y="316" type="curve" name="QNHMDPBX"/>
      <point x="106" y="206" name="TDPIWMFI"/>
      <point x="136" y="38" name="SALRIJSX"/>
    </contour>
  </outline>
</glyph>
<glyph name="u" format="2">
  <advance width="419"/>
  <unicode hex="0075"/>
  <outline>
    <contour>
      <point x="511" y="332" type="curve" name="PPZTJWRN"/>
      <point x="465" y="343" name="AEVSBTEE"/>
      <point x="420" y="350" name="LNSEXQOC"/>
      <point x="379" y="354" type="curve" name="QYRROEIH"/>
      <point x="324" y="335" name="ZLPCSFCC"/>
      <point x="299" y="271" name="TGBZDAPL"/>
      <point x="305" y="167" type="curve" smooth="yes" name="GMOTZUMW"/>
      <point x="308" y="105" name="LFIABLVC"/>
      <point x="294" y="62" name="JZKJCZRG"/>
      <point x="257" y="62" type="curve" smooth="yes" name="KJJFXAZH"/>
      <point x="219" y="62" name="XIWQTPVK"/>
      <point x="194" y="110" name="UGZIBCST"/>
      <point x="191" y="167" type="curve" smooth="yes" name="KGKDVSVN"/>
      <point x="185" y="271" name="JGOMWEFR"/>
      <point x="211" y="335" name="DHUTSBVQ"/>
      <point x="265" y="354" type="curve" name="POAJDLPY"/>
      <point x="230" y="350" name="IXJWNVFI"/>
      <point x="194" y="343" name="TODMFPZJ"/>
      <point x="164" y="332" type="curve" name="QVKRMWJA"/>
      <point x="105" y="311" name="COWPLLSU"/>
      <point x="80" y="240" name="DXARDKKY"/>
      <point x="92" y="120" type="curve" smooth="yes" name="RXKQBBPJ"/>
      <point x="106" y="-35" name="QLYSKIPY"/>
      <point x="206" y="-180" name="DTIJNGUM"/>
      <point x="284" y="-176" type="curve" smooth="yes" name="PNIUSOXF"/>
      <point x="319" y="-173" name="QAIDCIGJ"/>
      <point x="343" y="-147" name="EZIGRJVQ"/>
      <point x="358" y="-107" type="curve" name="JFNJQQEG"/>
      <point x="363" y="-123" name="LNTIREQF"/>
      <point x="366" y="-136" name="LIKITXOO"/>
      <point x="371" y="-152" type="curve" name="ETLSGMWV"/>
      <point x="411" y="-155" name="OSGRROZW"/>
      <point x="457" y="-163" name="KZSVTFMV"/>
      <point x="503" y="-174" type="curve" name="XEAUCMOR"/>
      <point x="411" y="127" name="AQWNUFYQ"/>
      <point x="414" y="298" name="TTAMHFIY"/>
    </contour>
  </outline>
</glyph>
<glyph name="x" format="2">
  <advance width="382"/>
  <unicode hex="0078"/>
  <outline>
    <contour>
      <point x="139" y="333" type="curve" name="YKTDXTZQ"/>
      <point x="122" y="327" name="XHTZXRJX"/>
      <point x="130" y="283" name="BFZMINBT"/>
      <point x="163" y="206" type="curve" name="IECWMLSP"/>
      <point x="126" y="116" name="WQZFSXLX"/>
      <point x="117" y="-18" name="ZXZLYZEV"/>
      <point x="134" y="-185" type="curve" name="JLUGSDDS"/>
      <point x="168" y="-173" name="DYTCRJZY"/>
      <point x="207" y="-165" name="FFDNXBKT"/>
      <point x="246" y="-161" type="curve" name="GNBZDYRV"/>
      <point x="239" y="-79" name="UVHUXIJS"/>
      <point x="239" y="-3" name="OJOWEUYJ"/>
      <point x="246" y="59" type="curve" name="TJRVXFDA"/>
      <point x="277" y="-3" name="ODUNEFYF"/>
      <point x="317" y="-79" name="UTBGQWQD"/>
      <point x="362" y="-161" type="curve" name="XDTZARFL"/>
      <point x="408" y="-165" name="JVLTHOCM"/>
      <point x="458" y="-173" name="TWOUBOMX"/>
      <point x="509" y="-185" type="curve" name="JCWBITCC"/>
      <point x="413" y="-14" name="MZJUXHSI"/>
      <point x="342" y="121" name="IRFCFLHR"/>
      <point x="303" y="211" type="curve" name="YEXIGYYJ"/>
      <point x="345" y="286" name="XKGWBLUA"/>
      <point x="414" y="327" name="SAKRJEIK"/>
      <point x="504" y="333" type="curve" name="OPGOCFEI"/>
      <point x="453" y="345" name="DVKCYUDW"/>
      <point x="404" y="353" name="ILTRWDGM"/>
      <point x="359" y="356" type="curve" name="GZHOYSPQ"/>
      <point x="318" y="349" name="XIVDLUYR"/>
      <point x="282" y="334" name="HPWUMWWL"/>
      <point x="251" y="312" type="curve" name="RXULEPKC"/>
      <point x="246" y="335" name="OZMLKFWN"/>
      <point x="246" y="350" name="LXDVIPCF"/>
      <point x="253" y="356" type="curve" name="XQHLXJIA"/>
      <point x="212" y="353" name="VCAJHNZM"/>
      <point x="174" y="345" name="ZCYSMKJX"/>
    </contour>
  </outline>
</glyph>
<glyph name="y" format="2">
  <advance width="382"/>
  <unicode hex="0079"/>
  <outline>
    <contour>
      <point x="203" y="-344" type="curve" name="AYGSPRJM"/>
      <point x="238" y="-337" name="CWIALNYX"/>
      <point x="278" y="-334" name="IQFJVXEO"/>
      <point x="318" y="-334" type="curve" name="QZUTKWZI"/>
      <point x="255" y="67" name="OXIDFXBJ"/>
      <point x="327" y="288" name="AYAVWNQW"/>
      <point x="528" y="315" type="curve" name="MUYDXRDJ"/>
      <point x="479" y="327" name="HYEUEVDF"/>
      <point x="433" y="335" name="TQAYNSZN"/>
      <point x="390" y="339" type="curve" name="EAGQVVXW"/>
      <point x="317" y="324" name="ELWYHPSX"/>
      <point x="261" y="280" name="VUZNXMZT"/>
      <point x="227" y="210" type="curve" name="XFOLWOBM"/>
      <point x="214" y="280" name="ZDMLLJIH"/>
      <point x="221" y="324" name="HHVUCIJB"/>
      <point x="246" y="339" type="curve" name="HFETTWBP"/>
      <point x="208" y="335" name="DUPWVWRS"/>
      <point x="172" y="327" name="RZOXPLIK"/>
      <point x="139" y="315" type="curve" name="YKBCDZZW"/>
      <point x="88" y="297" name="FGCPUSDC"/>
      <point x="100" y="187" name="ZUFTFOHU"/>
      <point x="174" y="-8" type="curve" name="GEVXGJFZ"/>
      <point x="170" y="-100" name="PVGTSOBD"/>
      <point x="180" y="-215" name="MTOBORGE"/>
    </contour>
  </outline>
</glyph>
<glyph name="braceright" format="2">
  <advance width="325"/>
  <unicode hex="007D"/>
  <outline>
    <contour>
      <point x="137" y="187" type="curve" name="IHHTQEIG"/>
      <point x="145" y="99" name="ZAKWAVKJ"/>
      <point x="190" y="10" name="JMCADZNA"/>
      <point x="206" y="-61" type="curve" smooth="yes" name="FLZUUFSL"/>
      <point x="222" y="-132" name="YXTEHTZM"/>
      <point x="195" y="-163" name="XIXLIPNX"/>
      <point x="112" y="-132" type="curve" name="JHYJFBAI"/>
      <point x="130" y="-206" name="MFUGYKAC"/>
      <point x="154" y="-289" name="OXWJIRGN"/>
      <point x="180" y="-374" type="curve" name="OBXPMWON"/>
      <point x="315" y="-411" name="PTXNURGQ"/>
      <point x="386" y="-316" name="MZNKNAKM"/>
      <point x="335" y="-101" type="curve" smooth="yes" name="MMGEDDGQ"/>
      <point x="299" y="46" name="WBYZEEDN"/>
      <point x="260" y="130" name="FRLTMKYD"/>
      <point x="255" y="183" type="curve" smooth="yes" name="ZFVJZZVT"/>
      <point x="253" y="205" name="MZAHLQLJ"/>
      <point x="261" y="214" name="WAZZFCSL"/>
      <point x="278" y="211" type="curve" smooth="yes" name="RWZWKXZN"/>
      <point x="293" y="208" name="TQXMNUNO"/>
      <point x="309" y="205" name="ZFDKMBJA"/>
      <point x="324" y="201" type="curve" name="ZCPFFLXK"/>
      <point x="321" y="251" name="RDXIHOLT"/>
      <point x="321" y="296" name="UIKINDIW"/>
      <point x="324" y="336" type="curve" name="JVSIMONC"/>
      <point x="309" y="340" name="BFFCWMGA"/>
      <point x="293" y="343" name="GFBQMJCT"/>
      <point x="278" y="346" type="curve" smooth="yes" name="HZLXPLPT"/>
      <point x="261" y="349" name="IMXHKYOX"/>
      <point x="253" y="358" name="ZBCUBGAY"/>
      <point x="255" y="374" type="curve" smooth="yes" name="BOTYBUGB"/>
      <point x="260" y="413" name="XMHDBYJL"/>
      <point x="300" y="460" name="ZDJECZLB"/>
      <point x="335" y="508" type="curve" smooth="yes" name="AXGOWXZC"/>
      <point x="386" y="579" name="IIGDYIXO"/>
      <point x="315" y="606" name="JBVLVPDB"/>
      <point x="180" y="557" type="curve" name="MKPUBLBG"/>
      <point x="154" y="546" name="PRUAHHEX"/>
      <point x="130" y="529" name="YCRREUVT"/>
      <point x="112" y="507" type="curve" name="MBLHODHD"/>
      <point x="195" y="548" name="ZXHCLECV"/>
      <point x="222" y="534" name="SBYZMNTV"/>
      <point x="206" y="508" type="curve" smooth="yes" name="GEOBJAAJ"/>
      <point x="190" y="483" name="SKEEHTRD"/>
      <point x="145" y="442" name="RWXVOWLA"/>
      <point x="137" y="378" type="curve" smooth="yes" name="YLMITKTS"/>
      <point x="132" y="344" name="FFTYJYSJ"/>
      <point x="142" y="311" name="LEKVWGVV"/>
      <point x="173" y="292" type="curve" name="FZTZVFCW"/>
      <point x="142" y="272" name="DRWRKQLH"/>
      <point x="132" y="233" name="BDVPPFZC"/>
      <point x="137" y="187" type="curve" name="PIXHMXBP"/>
      <point x="137" y="187" name="VUXOLSLQ"/>
      <point x="137" y="187" name="OCIXITEB"/>
    </contour>
  </outline>
</glyph>
<glyph name="sterling" format="2">
  <advance width="397"/>
  <unicode hex="00A3"/>
  <outline>
    <contour>
      <point x="86" y="192" type="curve" name="SULDKOSJ"/>
      <point x="100" y="197" name="TZPVTQSH"/>
      <point x="115" y="202" name="RWRWYJKE"/>
      <point x="130" y="205" type="curve" name="YNDBIDRK"/>
      <point x="138" y="173" name="JNDKEPUY"/>
      <point x="145" y="143" name="XYCIXFGF"/>
      <point x="149" y="119" type="curve" smooth="yes" name="EAABCAXS"/>
      <point x="157" y="78" name="FYZJRARU"/>
      <point x="151" y="60" name="CWYBYHEG"/>
      <point x="132" y="54" type="curve" smooth="yes" name="PPTJKFQM"/>
      <point x="125" y="52" name="LMOBGOIU"/>
      <point x="118" y="49" name="VDVYBSRB"/>
      <point x="110" y="47" type="curve" name="FMAGTRKN"/>
      <point x="126" y="-25" name="BYYPDTDD"/>
      <point x="149" y="-111" name="IXDUIBFL"/>
      <point x="178" y="-201" type="curve" name="ZVAQFCIO"/>
      <point x="265" y="-170" name="SFCLLBYT"/>
      <point x="376" y="-170" name="YRYPTODJ"/>
      <point x="507" y="-201" type="curve" name="PPBFHAPL"/>
      <point x="479" y="-111" name="VEGLHUNT"/>
      <point x="456" y="-25" name="WFOLIKDM"/>
      <point x="440" y="47" type="curve" name="YKCZOUJV"/>
      <point x="380" y="61" name="ONNYPZXY"/>
      <point x="322" y="69" name="WOWILBOH"/>
      <point x="271" y="70" type="curve" name="LMVEVUIK"/>
      <point x="269" y="91" name="HOZJAWPP"/>
      <point x="266" y="112" name="PGCCUCWH"/>
      <point x="262" y="134" type="curve" smooth="yes" name="MEZUCZQE"/>
      <point x="257" y="163" name="ATPXKOIV"/>
      <point x="252" y="190" name="CYPYDDBT"/>
      <point x="247" y="215" type="curve" name="OIDOQTCA"/>
      <point x="288" y="215" name="FYEFLKMJ"/>
      <point x="334" y="209" name="IAURHHVZ"/>
      <point x="381" y="200" type="curve" name="ODHJFRWG"/>
      <point x="376" y="253" name="QCDHHQDE"/>
      <point x="374" y="300" name="QAQMABYZ"/>
      <point x="378" y="339" type="curve" name="DGJAVQSF"/>
      <point x="323" y="350" name="WQJMFEXV"/>
      <point x="270" y="356" name="GGIYBWON"/>
      <point x="224" y="355" type="curve" name="IEPIZBPU"/>
      <point x="221" y="376" name="JRPNGCKD"/>
      <point x="222" y="392" name="SALBHOYS"/>
      <point x="226" y="405" type="curve" smooth="yes" name="KVQOJACY"/>
      <point x="241" y="466" name="WRMPQAIS"/>
      <point x="322" y="475" name="OSUYOUMX"/>
      <point x="416" y="413" type="curve" name="OSLAZHOE"/>
      <point x="429" y="449" name="HLXTQSUD"/>
      <point x="451" y="474" name="NNUAIOZS"/>
      <point x="480" y="489" type="curve" name="BHVZZVHJ"/>
      <point x="354" y="541" name="YVRIEDSF"/>
      <point x="165" y="539" name="MEBQTGUI"/>
      <point x="120" y="412" type="curve" smooth="yes" name="GYUBTLTC"/>
      <point x="113" y="391" name="BBVIKRWI"/>
      <point x="110" y="368" name="QKUBHVAN"/>
      <point x="110" y="341" type="curve" name="BGFLHEIN"/>
      <point x="101" y="338" name="MCPPUCOA"/>
      <point x="91" y="335" name="VZGKWSRT"/>
      <point x="82" y="332" type="curve" name="CYGMWPEW"/>
      <point x="78" y="293" name="XXVHOLVY"/>
      <point x="79" y="246" name="DEUMNINH"/>
    </contour>
  </outline>
</glyph>
<glyph name="currency" format="2">
  <advance width="456"/>
  <unicode hex="00A4"/>
  <outline>
    <contour>
      <point x="215" y="-144" type="curve" name="XOUPFJZW"/>
      <point x="217" y="-88" name="TCCSANFI"/>
      <point x="220" y="-32" name="LSEDKHKK"/>
      <point x="229" y="15" type="curve" name="MHPXRGSD"/>
      <point x="256" y="-5" name="JROHAIYX"/>
      <point x="283" y="-16" name="BCYRBUTU"/>
      <point x="311" y="-16" type="curve" smooth="yes" name="QVMYZRFE"/>
      <point x="339" y="-16" name="OJWJNKYD"/>
      <point x="363" y="-5" name="ISYQMZAF"/>
      <point x="381" y="17" type="curve" name="ZJBWOTSP"/>
      <point x="415" y="-32" name="LUEPVBGC"/>
      <point x="454" y="-86" name="RVOLEYYU"/>
      <point x="495" y="-144" type="curve" name="MZKYDLFK"/>
      <point x="503" y="-84" name="OLWCTLIJ"/>
      <point x="516" y="-27" name="YYHAGTNV"/>
      <point x="534" y="20" type="curve" name="QCDRVAED"/>
      <point x="498" y="71" name="IFGEPDQK"/>
      <point x="464" y="119" name="YFEVEIZY"/>
      <point x="434" y="161" type="curve" name="DUTKXPCM"/>
      <point x="440" y="200" name="CQMFAAIL"/>
      <point x="442" y="242" name="OEWFQSBD"/>
      <point x="442" y="282" type="curve" smooth="yes" name="GAZKZISY"/>
      <point x="442" y="321" name="YUDSANMC"/>
      <point x="440" y="352" name="ETPROSCL"/>
      <point x="435" y="377" type="curve" name="JDMEJIDO"/>
      <point x="465" y="394" name="OVOEDJNF"/>
      <point x="498" y="408" name="QVXIUOLK"/>
      <point x="534" y="416" type="curve" name="SZVRIVTA"/>
      <point x="516" y="441" name="PMARJJKP"/>
      <point x="503" y="460" name="KRYHUVJA"/>
      <point x="495" y="472" type="curve" name="ISIPABRC"/>
      <point x="454" y="470" name="QBZAQLVY"/>
      <point x="415" y="464" name="EXEXGLOG"/>
      <point x="381" y="453" type="curve" name="YYLFPDBQ"/>
      <point x="363" y="461" name="MEUDYILE"/>
      <point x="339" y="466" name="MSPVKTVH"/>
      <point x="311" y="466" type="curve" smooth="yes" name="BMFODRVE"/>
      <point x="283" y="466" name="MXCTZACU"/>
      <point x="256" y="461" name="RTVSGAZS"/>
      <point x="229" y="453" type="curve" name="QCFOSKYR"/>
      <point x="221" y="463" name="UWSLNJPZ"/>
      <point x="217" y="470" name="XGAOSKBR"/>
      <point x="215" y="472" type="curve" name="LZTSRLOJ"/>
      <point x="172" y="460" name="ZEFUSIEB"/>
      <point x="132" y="441" name="RWHQSGKK"/>
      <point x="99" y="416" type="curve" name="JIPMCPFS"/>
      <point x="104" y="407" name="DFDDAJHS"/>
      <point x="113" y="395" name="AIVWARJH"/>
      <point x="125" y="377" type="curve" name="PTWBZCSB"/>
      <point x="111" y="352" name="BIKZZNHR"/>
      <point x="101" y="321" name="DFDENSBD"/>
      <point x="101" y="282" type="curve" smooth="yes" name="ZKXBLWCD"/>
      <point x="101" y="242" name="MOFTOUZE"/>
      <point x="111" y="200" name="SVOIAWBL"/>
      <point x="126" y="161" type="curve" name="ZTKDYVAS"/>
      <point x="114" y="118" name="PWTEQEIM"/>
      <point x="104" y="72" name="YEOTRHGR"/>
      <point x="99" y="20" type="curve" name="HAEBMJQF"/>
      <point x="132" y="-27" name="ASUEQZSA"/>
      <point x="172" y="-84" name="FLTNSHDX"/>
    </contour>
    <contour>
      <point x="266" y="192" type="curve" name="KZKQZFVD"/>
      <point x="227" y="192" name="WIJNNJAU"/>
      <point x="196" y="239" name="ZFQYIBPB"/>
      <point x="196" y="298" type="curve" smooth="yes" name="PZMQNDZS"/>
      <point x="196" y="357" name="FTELWPFV"/>
      <point x="227" y="385" name="RBHIISEF"/>
      <point x="267" y="385" type="curve" smooth="yes" name="FKKZFPLD"/>
      <point x="306" y="385" name="PYSOVQSB"/>
      <point x="326" y="357" name="GAUCFUIP"/>
      <point x="326" y="298" type="curve" smooth="yes" name="YSZYUTXM"/>
      <point x="326" y="239" name="JKBCHCMM"/>
      <point x="306" y="192" name="FCIXWOSJ"/>
      <point x="266" y="192" type="curve" name="QRWVUWIS"/>
      <point x="266" y="192" name="KZROBUCM"/>
      <point x="266" y="192" name="DXUUFTHC"/>
    </contour>
  </outline>
</glyph>
<glyph name="dieresis" format="2">
  <advance width="409"/>
  <unicode hex="00A8"/>
  <anchor x="-84.0" y="517" name="top"/>
  <anchor x="204.0" y="517" name="center"/>
  <outline>
    <contour>
      <point x="215" y="441" type="curve" name="EWGWQVWM"/>
      <point x="251" y="447" name="YVEPXWBB"/>
      <point x="255" y="534" name="WOGPHOOQ"/>
      <point x="255" y="590" type="curve" smooth="yes" name="TDAIGGCG"/>
      <point x="255" y="645" name="YAPVNEKL"/>
      <point x="251" y="650" name="JILJUPRV"/>
      <point x="215" y="644" type="curve" smooth="yes" name="THDLPDMI"/>
      <point x="179" y="638" name="RBNUMQHQ"/>
      <point x="125" y="622" name="NWFPMIWW"/>
      <point x="124" y="568" type="curve" smooth="yes" name="JIPDXKLH"/>
      <point x="124" y="512" name="IOYMYAUE"/>
      <point x="179" y="435" name="HJQVJGWV"/>
      <point x="215" y="441" type="curve" name="SBSQRSQN"/>
      <point x="215" y="441" name="NEZUJBXX"/>
      <point x="215" y="441" name="ROPRWNCM"/>
    </contour>
    <contour>
      <point x="385" y="441" type="curve" name="PCMRDNGU"/>
      <point x="429" y="435" name="YWHYRMBT"/>
      <point x="440" y="512" name="TWQNKJWJ"/>
      <point x="440" y="568" type="curve" smooth="yes" name="PUQOVCQH"/>
      <point x="440" y="623" name="RDZLIHBV"/>
      <point x="429" y="638" name="MLPKIHVL"/>
      <point x="385" y="644" type="curve" smooth="yes" name="ACBSRRQT"/>
      <point x="340" y="650" name="WACXZPEO"/>
      <point x="279" y="644" name="BLIDQJRK"/>
      <point x="278" y="590" type="curve" smooth="yes" name="LUYGHRST"/>
      <point x="278" y="534" name="YGCORYND"/>
      <point x="340" y="447" name="AKWKJWRX"/>
      <point x="385" y="441" type="curve" name="QOAZDAUA"/>
      <point x="385" y="441" name="JXQVQLSE"/>
      <point x="385" y="441" name="BGUJBWOP"/>
    </contour>
  </outline>
</glyph>
<glyph name="logicalnot" format="2">
  <advance width="360"/>
  <unicode hex="00AC"/>
  <outline>
    <contour>
      <point x="99" y="211" type="curve" name="RLMTCLCA"/>
      <point x="149" y="229" name="ZKWLHIAF"/>
      <point x="210" y="236" name="ECTXGKDD"/>
      <point x="276" y="231" type="curve" name="TCVKFSMG"/>
      <point x="276" y="179" name="YRNOKYNH"/>
      <point x="290" y="106" name="GNJTGJBH"/>
      <point x="320" y="12" type="curve" name="ZWZHWWXK"/>
      <point x="359" y="9" name="BNBYEZFK"/>
      <point x="403" y="2" name="GADVBLYN"/>
      <point x="447" y="-8" type="curve" name="HQMXAGMR"/>
      <point x="389" y="177" name="PGVEWBVV"/>
      <point x="389" y="283" name="YUANHNPR"/>
      <point x="447" y="304" type="curve" name="DHNSEKQT"/>
      <point x="326" y="332" name="WMRREARW"/>
      <point x="223" y="332" name="JRVATJXD"/>
      <point x="143" y="304" type="curve" name="CCSHOQGR"/>
      <point x="114" y="294" name="CYJVWVRO"/>
      <point x="99" y="262" name="ATPGGYBJ"/>
    </contour>
  </outline>
</glyph>
<glyph name="plusminus" format="2">
  <advance width="382"/>
  <unicode hex="00B1"/>
  <outline>
    <contour>
      <point x="79" y="229" type="curve" name="HZTILNMF"/>
      <point x="108" y="239" name="MYALUGZO"/>
      <point x="139" y="246" name="PHUAONUE"/>
      <point x="172" y="249" type="curve" name="ABKWWAWM"/>
      <point x="171" y="211" name="LEEEYNOB"/>
      <point x="175" y="166" name="DQTLXQCE"/>
      <point x="184" y="115" type="curve" name="VVWJTIVA"/>
      <point x="218" y="119" name="BURGGTBB"/>
      <point x="257" y="119" name="DXXNAPJM"/>
      <point x="296" y="115" type="curve" name="TFLFAZBX"/>
      <point x="288" y="166" name="ACKKWOQF"/>
      <point x="284" y="211" name="RNABONOP"/>
      <point x="284" y="249" type="curve" name="NLRMSSLX"/>
      <point x="322" y="246" name="NOOXURJE"/>
      <point x="362" y="239" name="CTGHJYYN"/>
      <point x="405" y="229" type="curve" name="RBUCAHIE"/>
      <point x="405" y="279" name="MPCMOEXO"/>
      <point x="413" y="321" name="KPHQFNCF"/>
      <point x="429" y="350" type="curve" name="EEJVZWFL"/>
      <point x="386" y="360" name="CVHTSJMB"/>
      <point x="346" y="367" name="SNJYSJUL"/>
      <point x="308" y="370" type="curve" name="KGYFIUEN"/>
      <point x="323" y="396" name="FGWKJHXB"/>
      <point x="342" y="414" name="PNHXTLHF"/>
      <point x="368" y="424" type="curve" name="RWYXZKBX"/>
      <point x="329" y="427" name="ICNDTIJE"/>
      <point x="290" y="427" name="AUWAKIJN"/>
      <point x="255" y="424" type="curve" name="OKTOJOJO"/>
      <point x="230" y="414" name="ZTLDVXHP"/>
      <point x="210" y="396" name="RRKQSIGU"/>
      <point x="196" y="370" type="curve" name="YYLPOOHK"/>
      <point x="163" y="367" name="IVTFEOFC"/>
      <point x="132" y="360" name="EQVGGATG"/>
      <point x="103" y="350" type="curve" name="OBMKMHCF"/>
      <point x="88" y="321" name="MQGQSUUD"/>
      <point x="79" y="280" name="FYMYUOHP"/>
    </contour>
    <contour>
      <point x="163" y="-191" type="curve" name="UJFEDHJK"/>
      <point x="249" y="-160" name="SBVMCWFH"/>
      <point x="359" y="-160" name="ORQSTYDZ"/>
      <point x="489" y="-191" type="curve" name="AAQBVFAW"/>
      <point x="460" y="-99" name="QYCIQGQU"/>
      <point x="438" y="-15" name="VPYXXOZR"/>
      <point x="424" y="56" type="curve" name="WYHNZAEY"/>
      <point x="294" y="87" name="MUCSZKYK"/>
      <point x="184" y="87" name="BCVZJNLD"/>
      <point x="98" y="56" type="curve" name="VKBXOTQJ"/>
      <point x="112" y="-14" name="FKOIICMS"/>
      <point x="134" y="-99" name="WAHZQYCV"/>
    </contour>
  </outline>
</glyph>
<glyph name="paragraph" format="2">
  <advance width="550"/>
  <unicode hex="00B6"/>
  <outline>
    <contour>
      <point x="462" y="-175" type="curve" name="POHNFLTV"/>
      <point x="363" y="137" name="DYVOHCSQ"/>
      <point x="340" y="347" name="VAMQXABW"/>
      <point x="393" y="445" type="curve" name="BQFOKKHX"/>
      <point x="409" y="444" name="RERLBSTX"/>
      <point x="426" y="442" name="SFRJPLRN"/>
      <point x="443" y="440" type="curve" name="QJOHYPMS"/>
      <point x="390" y="341" name="MOPSCXSU"/>
      <point x="413" y="132" name="YRGLRQVO"/>
      <point x="511" y="-180" type="curve" name="TLYQFPJL"/>
      <point x="553" y="-185" name="KRIKTQQT"/>
      <point x="600" y="-194" name="KBRECPYF"/>
      <point x="646" y="-205" type="curve" name="BVBPSTWE"/>
      <point x="519" y="198" name="CLVWUIZV"/>
      <point x="519" y="430" name="XHWFLNSQ"/>
      <point x="646" y="475" type="curve" name="JQBTZGTV"/>
      <point x="528" y="503" name="YEJIUJSB"/>
      <point x="420" y="514" name="TYGASFHN"/>
      <point x="327" y="507" type="curve" smooth="yes" name="TAFJWVHT"/>
      <point x="225" y="499" name="VECPLYFN"/>
      <point x="110" y="469" name="NLVQHROW"/>
      <point x="84" y="370" type="curve" smooth="yes" name="ULOZTXDX"/>
      <point x="59" y="271" name="AEIJIALB"/>
      <point x="140" y="170" name="HGUJSYED"/>
      <point x="232" y="178" type="curve" smooth="yes" name="BPNJRIIU"/>
      <point x="240" y="178" name="GYSHJTTR"/>
      <point x="249" y="179" name="GKRIEZNG"/>
      <point x="257" y="179" type="curve" name="YZXGCWDI"/>
      <point x="271" y="83" name="FXZNSIMA"/>
      <point x="300" y="-35" name="DISNICQE"/>
      <point x="343" y="-172" type="curve" name="KCFECNTC"/>
      <point x="380" y="-170" name="VEERDOYW"/>
      <point x="421" y="-171" name="CINNBUNQ"/>
    </contour>
    <contour>
      <point x="226" y="342" type="curve" smooth="yes" name="EFVDUPAZ"/>
      <point x="199" y="340" name="JILBSVVU"/>
      <point x="182" y="365" name="TFYGWCDP"/>
      <point x="189" y="395" type="curve" smooth="yes" name="GHCBFLYK"/>
      <point x="197" y="424" name="ZIDCXQMY"/>
      <point x="226" y="444" name="YAIOMJBK"/>
      <point x="259" y="447" type="curve" smooth="yes" name="IFHLOQFR"/>
      <point x="264" y="447" name="NRDROCZA"/>
      <point x="269" y="447" name="MLWHJCYR"/>
      <point x="274" y="448" type="curve" name="ERLGSNGY"/>
      <point x="260" y="421" name="XUWTYWXP"/>
      <point x="252" y="386" name="BFRPRJOC"/>
      <point x="249" y="343" type="curve" name="CGEACANI"/>
      <point x="241" y="343" name="UCPAQPWX"/>
      <point x="233" y="343" name="OPMWTSVI"/>
    </contour>
  </outline>
</glyph>
<glyph name="cedilla" format="2">
  <advance width="294"/>
  <unicode hex="00B8"/>
  <anchor x="-61.0" y="0" name="bottom"/>
  <anchor x="147.0" y="0" name="center"/>
  <outline>
    <contour>
      <point x="243" y="-128" type="curve" name="RHCYKBZX"/>
      <point x="250" y="-117" name="AOVKBUAP"/>
      <point x="258" y="-109" name="HVQZRMFL"/>
      <point x="269" y="-105" type="curve" name="SNKJKGFV"/>
      <point x="244" y="-104" name="NHEOYBOP"/>
      <point x="218" y="-105" name="LHRTYGRR"/>
      <point x="196" y="-109" type="curve" name="WWABFIYR"/>
      <point x="170" y="-118" name="NMAPKTSF"/>
      <point x="155" y="-145" name="QTXQLUVY"/>
      <point x="153" y="-190" type="curve" name="YAQXYIZX"/>
      <point x="198" y="-177" name="JMHPEARS"/>
      <point x="218" y="-188" name="XGKHCTQS"/>
      <point x="220" y="-212" type="curve" smooth="yes" name="NVEZSSSX"/>
      <point x="222" y="-243" name="BXLZQQMZ"/>
      <point x="177" y="-246" name="PLQKPKAO"/>
      <point x="120" y="-232" type="curve" name="IWFFFPNM"/>
      <point x="123" y="-270" name="LKIXHIOU"/>
      <point x="134" y="-320" name="WTKJSTMV"/>
      <point x="150" y="-377" type="curve" name="TZLFKMBA"/>
      <point x="267" y="-424" name="XPZKEPLA"/>
      <point x="327" y="-356" name="URHNEWTT"/>
      <point x="315" y="-236" type="curve" smooth="yes" name="EWQTVTFV"/>
      <point x="309" y="-163" name="MRONLEWQ"/>
      <point x="284" y="-140" name="JHMGLSLN"/>
      <point x="243" y="-128" type="curve" name="PXYOIIPA"/>
      <point x="243" y="-128" name="SUSUYCIF"/>
      <point x="243" y="-128" name="JXDKAIYC"/>
    </contour>
  </outline>
</glyph>
<glyph name="onesuperior" format="2">
  <advance width="240"/>
  <unicode hex="00B9"/>
  <outline>
    <contour>
      <point x="301" y="525" type="curve" name="LGTCOXJT"/>
      <point x="232" y="537" name="CXKUJLQW"/>
      <point x="174" y="534" name="LJWLOXLH"/>
      <point x="128" y="515" type="curve" name="PXAALMQR"/>
      <point x="111" y="502" name="DEAPKAFH"/>
      <point x="99" y="481" name="MIGDYJGX"/>
      <point x="92" y="453" type="curve" name="DUPPVZPZ"/>
      <point x="109" y="462" name="VQDIGQZN"/>
      <point x="127" y="468" name="DKJTEAYE"/>
      <point x="146" y="473" type="curve" name="VCWERRRN"/>
      <point x="128" y="405" name="MLHYKVCK"/>
      <point x="145" y="283" name="EJPZGNAF"/>
      <point x="198" y="113" type="curve" name="EUMYXOSR"/>
      <point x="228" y="116" name="IKIQTHIR"/>
      <point x="263" y="112" name="QTNTSGNO"/>
      <point x="301" y="103" type="curve" name="EONATQBD"/>
      <point x="223" y="353" name="EUEDITTD"/>
      <point x="223" y="497" name="YXTTGIIN"/>
    </contour>
  </outline>
</glyph>
<glyph name="ordmasculine" format="2">
  <advance width="348"/>
  <unicode hex="00BA"/>
  <outline>
    <contour>
      <point x="225" y="200" type="curve" name="QUXOVDUU"/>
      <point x="310" y="200" name="BVCBBTNR"/>
      <point x="361" y="308" name="FPCCZFFP"/>
      <point x="380" y="402" type="curve" smooth="yes" name="YESOZEVE"/>
      <point x="400" y="495" name="KHFBKNFK"/>
      <point x="378" y="525" name="VKRIMLVT"/>
      <point x="294" y="525" type="curve" smooth="yes" name="OOCZLOWT"/>
      <point x="208" y="525" name="AZSJSAVS"/>
      <point x="103" y="495" name="HSQTDYGW"/>
      <point x="83" y="402" type="curve" smooth="yes" name="DHSFGBMB"/>
      <point x="63" y="309" name="ISVJOWOI"/>
      <point x="139" y="200" name="KJBGFCVW"/>
      <point x="225" y="200" type="curve" name="KZFADUIA"/>
      <point x="225" y="200" name="WHELMLTA"/>
      <point x="225" y="200" name="YDBMGNXG"/>
    </contour>
    <contour>
      <point x="209" y="351" type="curve" name="QSUTQDYL"/>
      <point x="179" y="351" name="CFANXCSY"/>
      <point x="161" y="383" name="WXQYNDQV"/>
      <point x="168" y="421" type="curve" smooth="yes" name="ZGCXROIC"/>
      <point x="175" y="459" name="FQXFVAHC"/>
      <point x="206" y="477" name="KIZGGHVK"/>
      <point x="236" y="477" type="curve" smooth="yes" name="HMMMNZGP"/>
      <point x="267" y="477" name="FKNSRRLL"/>
      <point x="276" y="459" name="CVHONBFO"/>
      <point x="268" y="421" type="curve" smooth="yes" name="PXQKNKVS"/>
      <point x="260" y="384" name="ZSHBWAOQ"/>
      <point x="240" y="351" name="QTLKVVXZ"/>
      <point x="209" y="351" type="curve" name="LDBCGVBK"/>
      <point x="209" y="351" name="WYYWIBMT"/>
      <point x="209" y="351" name="ZFQSGOGB"/>
    </contour>
    <contour>
      <point x="171" y="-83" type="curve" name="SGZABZTW"/>
      <point x="243" y="-60" name="RNNCDDTT"/>
      <point x="335" y="-60" name="ALRKHJZB"/>
      <point x="440" y="-83" type="curve" name="DHWYNNUH"/>
      <point x="415" y="-5" name="JEPIQCNS"/>
      <point x="396" y="65" name="ASRHQINO"/>
      <point x="383" y="127" type="curve" name="ZUUNGPRK"/>
      <point x="278" y="150" name="BWSWDPXS"/>
      <point x="186" y="150" name="MKCSLKON"/>
      <point x="114" y="127" type="curve" name="FNHLCFUN"/>
      <point x="127" y="65" name="OPQVKVWB"/>
      <point x="146" y="-5" name="OUSAHPFC"/>
    </contour>
  </outline>
</glyph>
<glyph name="onequarter" format="2">
  <advance width="635"/>
  <unicode hex="00BC"/>
  <outline>
    <contour>
      <point x="307" y="515" type="curve" name="DOJSKCES"/>
      <point x="254" y="505" name="LZQLMLLX"/>
      <point x="203" y="492" name="CEUXHATO"/>
      <point x="156" y="474" type="curve" name="VFLGBKOE"/>
      <point x="138" y="463" name="GYUYLWSQ"/>
      <point x="121" y="448" name="GXGXULAK"/>
      <point x="110" y="427" type="curve" name="DPGWRBOT"/>
      <point x="127" y="435" name="PAQZRGVW"/>
      <point x="145" y="442" name="YXAKIJHO"/>
      <point x="162" y="449" type="curve" name="XDFPYGQJ"/>
      <point x="130" y="401" name="MUAKQLNJ"/>
      <point x="119" y="318" name="WFMSEIGQ"/>
      <point x="130" y="208" type="curve" name="VIFUZIMX"/>
      <point x="157" y="215" name="HSLPYDTV"/>
      <point x="185" y="221" name="JNOODAXC"/>
      <point x="214" y="225" type="curve" name="ZASZMIHQ"/>
      <point x="197" y="388" name="KIYKKIND"/>
      <point x="229" y="487" name="LYCFGOLC"/>
    </contour>
    <contour>
      <point x="245" y="-190" type="curve" name="XOPCJLUO"/>
      <point x="273" y="-183" name="JCPSZFPW"/>
      <point x="302" y="-178" name="SXEQUCUO"/>
      <point x="332" y="-175" type="curve" name="KJLPAOAN"/>
      <point x="291" y="238" name="UDSDXUGU"/>
      <point x="385" y="471" name="KUCKSCVB"/>
      <point x="611" y="507" type="curve" name="LVNSHKKM"/>
      <point x="574" y="513" name="XSXLBILZ"/>
      <point x="539" y="516" name="YCNEAQHN"/>
      <point x="505" y="519" type="curve" name="QCNHEXCK"/>
      <point x="285" y="474" name="MVNWKNSQ"/>
      <point x="198" y="232" name="MSQKBQAR"/>
    </contour>
    <contour>
      <point x="426" y="-34" type="curve" name="NCNRGMFX"/>
      <point x="471" y="-36" name="UKMLERBP"/>
      <point x="519" y="-40" name="CCDBLUOZ"/>
      <point x="568" y="-47" type="curve" name="ZQDGELHS"/>
      <point x="579" y="-89" name="VORAFVYS"/>
      <point x="593" y="-135" name="ULOLBQDE"/>
      <point x="608" y="-182" type="curve" name="ISSDLVPM"/>
      <point x="640" y="-186" name="VTLRQFKU"/>
      <point x="674" y="-192" name="LMUVTPXI"/>
      <point x="710" y="-200" type="curve" name="RCLFCMBG"/>
      <point x="695" y="-153" name="OEUJTQOH"/>
      <point x="681" y="-107" name="MMKNXRST"/>
      <point x="670" y="-65" type="curve" name="YEBYONVT"/>
      <point x="685" y="-68" name="WSAQIOTY"/>
      <point x="700" y="-71" name="VBVRXCTN"/>
      <point x="716" y="-75" type="curve" name="WWCCRQDC"/>
      <point x="700" y="-18" name="BHPMWNKK"/>
      <point x="688" y="37" name="KJFXZLVD"/>
      <point x="678" y="85" type="curve" name="SORLCRHQ"/>
      <point x="664" y="88" name="MERDLWAD"/>
      <point x="647" y="92" name="FKCGZCEM"/>
      <point x="633" y="95" type="curve" name="WCZVGQLG"/>
      <point x="613" y="196" name="PHDRTKMR"/>
      <point x="607" y="280" name="GITXGXNJ"/>
      <point x="614" y="344" type="curve" name="TVHXOSFT"/>
      <point x="565" y="354" name="ZOWGEYSV"/>
      <point x="514" y="362" name="SYYTJBXJ"/>
      <point x="468" y="367" type="curve" name="HRPUUDRS"/>
      <point x="428" y="307" name="QRANYJGU"/>
      <point x="401" y="226" name="WDIAMFXB"/>
      <point x="389" y="125" type="curve" name="RSWWKKDV"/>
      <point x="398" y="78" name="NATCFVZR"/>
      <point x="411" y="22" name="DIDJZJKA"/>
    </contour>
    <contour>
      <point x="486" y="119" type="curve" name="GVZMVHHL"/>
      <point x="491" y="167" name="SRWCBVCV"/>
      <point x="500" y="210" name="IJUITFUR"/>
      <point x="512" y="247" type="curve" name="EYHOOHZD"/>
      <point x="515" y="207" name="KJPYPDIR"/>
      <point x="521" y="163" name="RSSMMGML"/>
      <point x="531" y="113" type="curve" name="ATXVNDEW"/>
      <point x="516" y="115" name="YJEWFJRG"/>
      <point x="501" y="117" name="DBNXGCWB"/>
    </contour>
  </outline>
</glyph>
<glyph name="Eth" format="2">
  <advance width="489"/>
  <unicode hex="00D0"/>
  <outline>
    <contour>
      <point x="193" y="-192" type="curve" name="NVUOQRNF"/>
      <point x="240" y="-179" name="JCJJQJPD"/>
      <point x="294" y="-173" name="XNFTDCCO"/>
      <point x="350" y="-172" type="curve" smooth="yes" name="IFGWMAGF"/>
      <point x="487" y="-170" name="IYIUZPYX"/>
      <point x="517" y="78" name="LQTIYNVY"/>
      <point x="517" y="273" type="curve" smooth="yes" name="DAJNLXCP"/>
      <point x="518" y="466" name="JPGTNJDG"/>
      <point x="487" y="510" name="VCQVNXLM"/>
      <point x="350" y="508" type="curve" smooth="yes" name="WZJPHOYF"/>
      <point x="294" y="507" name="QVBEFGDR"/>
      <point x="240" y="501" name="JSKLHKFI"/>
      <point x="193" y="488" type="curve" name="DNJGBOKW"/>
      <point x="144" y="471" name="THRZDEMU"/>
      <point x="113" y="425" name="XWNTHAZL"/>
      <point x="101" y="355" type="curve" name="ZJCEDFZF"/>
      <point x="88" y="351" name="OWFCIGKS"/>
      <point x="74" y="347" name="IFDEPHHU"/>
      <point x="61" y="342" type="curve" name="YJRBWZPC"/>
      <point x="54" y="301" name="EZMAGKZD"/>
      <point x="54" y="248" name="EPUSQCWJ"/>
      <point x="61" y="187" type="curve" name="SNYGWNKY"/>
      <point x="74" y="192" name="YNJGMRDZ"/>
      <point x="88" y="196" name="JFLIFTXG"/>
      <point x="101" y="200" type="curve" name="DJMEKYTW"/>
      <point x="113" y="97" name="RPUVFPLZ"/>
      <point x="143" y="-35" name="ZCONRVRO"/>
    </contour>
    <contour>
      <point x="281" y="447" type="curve" smooth="yes" name="AAWJEPAY"/>
      <point x="351" y="448" name="LWVYNEDC"/>
      <point x="374" y="402" name="PNRGFNKH"/>
      <point x="374" y="298" type="curve" smooth="yes" name="PASUJKOG"/>
      <point x="374" y="193" name="EQZAZTPX"/>
      <point x="351" y="84" name="MBZEXWRM"/>
      <point x="281" y="83" type="curve" smooth="yes" name="FLSLCELE"/>
      <point x="265" y="83" name="ZDXRVAYJ"/>
      <point x="250" y="82" name="ZCKILIND"/>
      <point x="235" y="81" type="curve" name="HJWSSYUU"/>
      <point x="224" y="131" name="QZTLGFRB"/>
      <point x="217" y="177" name="AHHRBSFX"/>
      <point x="212" y="218" type="curve" name="VLYTGQWJ"/>
      <point x="240" y="220" name="AALWCPRA"/>
      <point x="270" y="221" name="FYTSHMFS"/>
      <point x="300" y="219" type="curve" name="NWKPUIZR"/>
      <point x="293" y="280" name="WNWSXNQA"/>
      <point x="293" y="333" name="JRKYTNAC"/>
      <point x="300" y="374" type="curve" name="CWGLQEXN"/>
      <point x="270" y="375" name="CTVWRVCL"/>
      <point x="240" y="375" name="HYYPYAMH"/>
      <point x="212" y="373" type="curve" name="XEMDVKYO"/>
      <point x="217" y="401" name="OCZHMEEB"/>
      <point x="225" y="425" name="WCMISMAY"/>
      <point x="235" y="445" type="curve" name="QRZOVABO"/>
      <point x="250" y="446" name="BLGUWJWB"/>
      <point x="265" y="447" name="JXTEBUYD"/>
    </contour>
  </outline>
</glyph>
<glyph name="multiply" format="2">
  <advance width="379"/>
  <unicode hex="00D7"/>
  <outline>
    <contour>
      <point x="220" y="-79" type="curve" name="AYXBODPU"/>
      <point x="222" y="-5" name="LSYNAUUS"/>
      <point x="232" y="61" name="ESWRYSBH"/>
      <point x="250" y="114" type="curve" name="CTKSGKKN"/>
      <point x="288" y="60" name="KJJJHYHO"/>
      <point x="333" y="-5" name="ZJZNVASE"/>
      <point x="386" y="-79" type="curve" name="PUYYCXGM"/>
      <point x="394" y="-18" name="JRCTNSKU"/>
      <point x="408" y="37" name="BFMPKSVN"/>
      <point x="429" y="80" type="curve" name="FMGRUQMM"/>
      <point x="384" y="143" name="FHYJENSL"/>
      <point x="346" y="198" name="RBUYQTGF"/>
      <point x="316" y="241" type="curve" name="ZXSHVCBW"/>
      <point x="346" y="276" name="EAKIXCJD"/>
      <point x="384" y="301" name="JPFSDQEJ"/>
      <point x="429" y="315" type="curve" name="WDKIOGUE"/>
      <point x="409" y="343" name="CYEDQFIA"/>
      <point x="394" y="365" name="SUBQOHIZ"/>
      <point x="386" y="376" type="curve" name="JIEQXUCH"/>
      <point x="333" y="372" name="XLINZPKQ"/>
      <point x="288" y="358" name="IVYVISHE"/>
      <point x="250" y="334" type="curve" name="IVOLKFQR"/>
      <point x="233" y="358" name="CFSQKWZK"/>
      <point x="222" y="372" name="JRCJBUJV"/>
      <point x="220" y="376" type="curve" name="HEFVSUXG"/>
      <point x="176" y="365" name="LMEZVZDQ"/>
      <point x="138" y="344" name="DTAYBQLW"/>
      <point x="107" y="315" type="curve" name="KHWRRLQD"/>
      <point x="118" y="300" name="QODJRJZS"/>
      <point x="135" y="276" name="RCGMVHZH"/>
      <point x="160" y="241" type="curve" name="WNZKCYPV"/>
      <point x="135" y="198" name="MTQCKPFW"/>
      <point x="117" y="144" name="MPPUPDKS"/>
      <point x="107" y="80" type="curve" name="BCKJEEYE"/>
      <point x="138" y="36" name="BKPUUOZP"/>
      <point x="176" y="-18" name="QDBFXVBP"/>
    </contour>
  </outline>
</glyph>
<glyph name="Oslash" format="2">
  <advance width="516"/>
  <unicode hex="00D8"/>
  <outline>
    <contour>
      <point x="167" y="-184" type="curve" name="SUIZIBFV"/>
      <point x="206" y="-218" name="BFQRQHDL"/>
      <point x="249" y="-258" name="BNXQKHIF"/>
      <point x="293" y="-299" type="curve" name="IVJDMIES"/>
      <point x="285" y="-239" name="UAELQOFU"/>
      <point x="281" y="-180" name="LAQPUPDS"/>
      <point x="278" y="-127" type="curve" name="ZAOVTCHZ"/>
      <point x="302" y="-140" name="ODTAQUXK"/>
      <point x="326" y="-146" name="RVSAGTWY"/>
      <point x="350" y="-146" type="curve" smooth="yes" name="IWZXYNGB"/>
      <point x="488" y="-146" name="YUFZYHFL"/>
      <point x="531" y="85" name="GYGXEIBH"/>
      <point x="531" y="290" type="curve" smooth="yes" name="KMNMRHSH"/>
      <point x="531" y="397" name="HCQVCZPE"/>
      <point x="520" y="467" name="XXRFXDIQ"/>
      <point x="490" y="509" type="curve" name="SFVSUCZH"/>
      <point x="515" y="524" name="MNYUASIY"/>
      <point x="544" y="537" name="JCTRPGJK"/>
      <point x="575" y="544" type="curve" name="YIVRQEWW"/>
      <point x="549" y="560" name="UQPZBIYY"/>
      <point x="525" y="574" name="GGQXBXZO"/>
      <point x="503" y="583" type="curve" name="FGZSRAKY"/>
      <point x="472" y="579" name="KYMCBXKE"/>
      <point x="440" y="570" name="BNKYADYD"/>
      <point x="414" y="559" type="curve" name="NSRFHVJZ"/>
      <point x="395" y="564" name="KUEHRNYR"/>
      <point x="374" y="566" name="OYLKBWHK"/>
      <point x="350" y="566" type="curve" smooth="yes" name="CTDYBXXL"/>
      <point x="211" y="566" name="NOSBKNXS"/>
      <point x="54" y="497" name="LDYRTYCN"/>
      <point x="54" y="290" type="curve" smooth="yes" name="BSQTODNF"/>
      <point x="54" y="183" name="WKVAREIZ"/>
      <point x="97" y="68" name="WWQELYUH"/>
      <point x="159" y="-17" type="curve" name="NUEHIGZA"/>
      <point x="159" y="-68" name="JQOIPOAU"/>
      <point x="161" y="-125" name="SFNVBQTK"/>
    </contour>
    <contour>
      <point x="160" y="318" type="curve" name="GYHLMGWZ"/>
      <point x="160" y="437" name="HXUAAKMP"/>
      <point x="224" y="489" name="NRBPYORT"/>
      <point x="294" y="489" type="curve" smooth="yes" name="VVLNGFGC"/>
      <point x="299" y="489" name="RAQYHFVJ"/>
      <point x="304" y="489" name="VAEDYVHB"/>
      <point x="308" y="489" type="curve" name="CFGJGHYB"/>
      <point x="245" y="425" name="VBYXEBRZ"/>
      <point x="200" y="330" name="IMZZWAKF"/>
      <point x="179" y="206" type="curve" name="MPVJNIBB"/>
      <point x="167" y="241" name="EDROFIVA"/>
      <point x="159" y="280" name="LWMCZNPO"/>
      <point x="160" y="318" type="curve" name="MJNIMUFA"/>
      <point x="160" y="318" name="EGTARACK"/>
      <point x="160" y="318" name="VBCWJFWY"/>
    </contour>
    <contour>
      <point x="294" y="88" type="curve" name="UBDLVDUK"/>
      <point x="289" y="88" name="NPOJUNIE"/>
      <point x="283" y="88" name="ITRPIYFP"/>
      <point x="279" y="89" type="curve" name="MTBNUJPZ"/>
      <point x="291" y="226" name="VASQKIGA"/>
      <point x="326" y="336" name="NTAKQHAO"/>
      <point x="381" y="412" type="curve" name="DULZFFBX"/>
      <point x="386" y="388" name="NDBIYOAH"/>
      <point x="389" y="357" name="CQTDLCHH"/>
      <point x="389" y="318" type="curve" smooth="yes" name="TMHRCYLU"/>
      <point x="389" y="198" name="PJOJDFZV"/>
      <point x="364" y="88" name="IUPVHQAY"/>
      <point x="294" y="88" type="curve" name="BFRSNSAG"/>
      <point x="294" y="88" name="RNMKCGVE"/>
      <point x="294" y="88" name="WBWROTMO"/>
    </contour>
  </outline>
</glyph>
<glyph name="germandbls" format="2">
  <advance width="420"/>
  <unicode hex="00DF"/>
  <outline>
    <contour>
      <point x="330" y="169" type="curve" name="KVPRTYMT"/>
      <point x="341" y="98" name="LGZTXUIX"/>
      <point x="319" y="46" name="IFWKAJYD"/>
      <point x="250" y="69" type="curve" name="SATCOXMO"/>
      <point x="267" y="-4" name="ZZUGCVIK"/>
      <point x="290" y="-89" name="KMOCCUOY"/>
      <point x="317" y="-178" type="curve" name="ZRFPVOSI"/>
      <point x="478" y="-217" name="THOWUSZT"/>
      <point x="496" y="-48" name="AAMRDCDN"/>
      <point x="464" y="140" type="curve" smooth="yes" name="ULGRAMKY"/>
      <point x="445" y="246" name="LKGXGOUB"/>
      <point x="412" y="326" name="EWXFUVQW"/>
      <point x="358" y="368" type="curve" name="UBFBJARS"/>
      <point x="387" y="395" name="SCMRSWEB"/>
      <point x="409" y="430" name="SNUCPNYT"/>
      <point x="424" y="463" type="curve" smooth="yes" name="OZCQWIVT"/>
      <point x="454" y="538" name="WZPACOHS"/>
      <point x="427" y="566" name="THDPLDDS"/>
      <point x="335" y="563" type="curve" smooth="yes" name="FIEQVXON"/>
      <point x="232" y="561" name="VZXHIULD"/>
      <point x="126" y="531" name="JLVGBQJV"/>
      <point x="96" y="437" type="curve" smooth="yes" name="CGZNZAAV"/>
      <point x="58" y="320" name="UCDDRSHU"/>
      <point x="88" y="102" name="XIXAGVJA"/>
      <point x="184" y="-205" type="curve" name="IZMDVDRP"/>
      <point x="214" y="-194" name="OHWDPBQP"/>
      <point x="249" y="-186" name="QDEEKPNJ"/>
      <point x="284" y="-182" type="curve" name="EWAQGDQX"/>
      <point x="189" y="123" name="ZCYERIYL"/>
      <point x="159" y="341" name="FMMNZNIH"/>
      <point x="197" y="458" type="curve" smooth="yes" name="VFXDMUTS"/>
      <point x="208" y="493" name="DBKECQSE"/>
      <point x="237" y="509" name="FAHAJTPJ"/>
      <point x="265" y="509" type="curve" smooth="yes" name="JARZFFCY"/>
      <point x="293" y="510" name="CTZTNGXF"/>
      <point x="303" y="496" name="XNPFTGFL"/>
      <point x="293" y="468" type="curve" smooth="yes" name="PMBAHFCX"/>
      <point x="283" y="439" name="WEFDRMNL"/>
      <point x="259" y="418" name="XCGDCGGZ"/>
      <point x="218" y="408" type="curve" name="UCEEAFBX"/>
      <point x="213" y="369" name="VEHFSNXX"/>
      <point x="213" y="320" name="YUSVAEIU"/>
      <point x="217" y="267" type="curve" name="SNYFCQWS"/>
      <point x="287" y="285" name="ACXUPPLK"/>
      <point x="318" y="233" name="RFPTXQWH"/>
      <point x="330" y="169" type="curve" name="DWABCNNO"/>
      <point x="330" y="169" name="ASUKKWOV"/>
      <point x="330" y="169" name="SMYBZPTY"/>
    </contour>
  </outline>
</glyph>
<glyph name="eth" format="2">
  <advance width="407"/>
  <unicode hex="00F0"/>
  <outline>
    <contour>
      <point x="150" y="443" type="curve" name="JLUGOUDJ"/>
      <point x="184" y="458" name="JTWAJPRU"/>
      <point x="220" y="470" name="KISWLVLE"/>
      <point x="259" y="478" type="curve" name="KIVYPLCW"/>
      <point x="265" y="459" name="GIRGJDSF"/>
      <point x="273" y="436" name="WPGNTKDW"/>
      <point x="277" y="418" type="curve" name="ENESDWMY"/>
      <point x="211" y="466" name="CIHVKYUT"/>
      <point x="32" y="448" name="ZJBVPQKZ"/>
      <point x="70" y="171" type="curve" smooth="yes" name="XTRMSKFI"/>
      <point x="96" y="-15" name="IHEYTEAI"/>
      <point x="219" y="-199" name="PCKAWXYC"/>
      <point x="323" y="-197" type="curve" smooth="yes" name="BKEVFKPZ"/>
      <point x="432" y="-196" name="CRISBCKY"/>
      <point x="453" y="-2" name="EZUMVLYB"/>
      <point x="432" y="226" type="curve" smooth="yes" name="XAOTTMMK"/>
      <point x="421" y="359" name="OGRGGABT"/>
      <point x="402" y="444" name="DKAKICIP"/>
      <point x="386" y="494" type="curve" name="VLMMDLAK"/>
      <point x="404" y="494" name="DRWYDLRV"/>
      <point x="422" y="494" name="MTCMJBRT"/>
      <point x="440" y="494" type="curve" name="TSBTLNVF"/>
      <point x="446" y="512" name="DRMOYDYZ"/>
      <point x="454" y="527" name="OFHONQXZ"/>
      <point x="466" y="536" type="curve" name="VURZXHIO"/>
      <point x="433" y="538" name="PSWGNILO"/>
      <point x="401" y="539" name="PGYCTFTE"/>
      <point x="370" y="538" type="curve" name="RKRHYFKE"/>
      <point x="369" y="541" name="TQCXCEJU"/>
      <point x="367" y="545" name="NVJKMWGV"/>
      <point x="365" y="548" type="curve" name="HYWXRNNA"/>
      <point x="318" y="550" name="CKFAIHJY"/>
      <point x="272" y="547" name="QXSHMRSN"/>
      <point x="231" y="540" type="curve" name="KTJUPIIL"/>
      <point x="234" y="538" name="MZKQHBCG"/>
      <point x="236" y="533" name="CJIPRAOQ"/>
      <point x="241" y="523" type="curve" name="CECCUDZI"/>
      <point x="214" y="518" name="UXKXNWIO"/>
      <point x="189" y="510" name="RDFIVVVJ"/>
      <point x="165" y="501" type="curve" name="XKLZBWCO"/>
      <point x="156" y="487" name="KLQTSDZU"/>
      <point x="152" y="467" name="OWACPUWQ"/>
    </contour>
    <contour>
      <point x="265" y="47" type="curve" name="JFKIHIQR"/>
      <point x="224" y="47" name="NEOMMDJN"/>
      <point x="183" y="111" name="TKNWIMJU"/>
      <point x="171" y="192" type="curve" smooth="yes" name="YCUUFUHF"/>
      <point x="160" y="273" name="OKOMHLVV"/>
      <point x="187" y="318" name="HSMFEUNX"/>
      <point x="227" y="318" type="curve" smooth="yes" name="ZRJLNCML"/>
      <point x="267" y="318" name="CGQQSYFC"/>
      <point x="294" y="274" name="FMMRMGZG"/>
      <point x="305" y="196" type="curve" smooth="yes" name="BFUOHEGD"/>
      <point x="316" y="113" name="SCGIDIQE"/>
      <point x="304" y="47" name="XUXUAWBZ"/>
      <point x="265" y="47" type="curve" name="SCQLOOQE"/>
      <point x="265" y="47" name="FKWPUYUB"/>
      <point x="265" y="47" name="QQUWYFTU"/>
    </contour>
  </outline>
</glyph>
<glyph name="oslash" format="2">
  <advance width="424"/>
  <unicode hex="00F8"/>
  <outline>
    <contour>
      <point x="153" y="-170" type="curve" name="JWJBRDJO"/>
      <point x="184" y="-196" name="QUJJPIQV"/>
      <point x="218" y="-227" name="ONRPADGN"/>
      <point x="253" y="-258" type="curve" name="JZUODWUD"/>
      <point x="248" y="-213" name="LVBXTXGK"/>
      <point x="246" y="-170" name="RAAXVSPO"/>
      <point x="245" y="-130" type="curve" name="AXHQLTIA"/>
      <point x="263" y="-138" name="NKSDHCMS"/>
      <point x="283" y="-144" name="JSMBFNLL"/>
      <point x="303" y="-144" type="curve" smooth="yes" name="HARMTQJN"/>
      <point x="413" y="-144" name="XAOJYJIY"/>
      <point x="452" y="36" name="ZXCVJKBL"/>
      <point x="452" y="193" type="curve" smooth="yes" name="JSWZWQCN"/>
      <point x="452" y="275" name="FZVPAHJR"/>
      <point x="443" y="327" name="OBEWFZTW"/>
      <point x="417" y="360" type="curve" name="BVOWGCAX"/>
      <point x="438" y="371" name="YKGNEMGU"/>
      <point x="460" y="380" name="OYNWXCAC"/>
      <point x="484" y="386" type="curve" name="KJOFMQQE"/>
      <point x="463" y="398" name="CUYTTUTA"/>
      <point x="442" y="409" name="TWAGEWHZ"/>
      <point x="424" y="416" type="curve" name="LLNNJBCW"/>
      <point x="399" y="413" name="JVCBDXOX"/>
      <point x="377" y="406" name="NNSWNNGL"/>
      <point x="356" y="398" type="curve" name="QIABEGSL"/>
      <point x="339" y="403" name="QPIOIQBE"/>
      <point x="323" y="404" name="YVZJDSFO"/>
      <point x="303" y="404" type="curve" smooth="yes" name="ULOVMINN"/>
      <point x="193" y="404" name="RQXUXTFT"/>
      <point x="66" y="351" name="YGXXOBLO"/>
      <point x="66" y="193" type="curve" smooth="yes" name="IMBVNAMA"/>
      <point x="66" y="112" name="TRLCYFHZ"/>
      <point x="100" y="23" name="KEWPQGZT"/>
      <point x="148" y="-43" type="curve" name="AMQUMVMU"/>
      <point x="148" y="-82" name="HIACNGOM"/>
      <point x="150" y="-127" name="MKXKYEYH"/>
    </contour>
    <contour>
      <point x="165" y="215" type="curve" name="QTEOEVKA"/>
      <point x="165" y="293" name="DPQHAVMB"/>
      <point x="207" y="331" name="AYGLFUOC"/>
      <point x="254" y="331" type="curve" smooth="yes" name="BOXMEVBU"/>
      <point x="256" y="331" name="MXVZGGST"/>
      <point x="257" y="331" name="LMGQJQNK"/>
      <point x="258" y="331" type="curve" name="WWTHHAOA"/>
      <point x="219" y="289" name="QTFGPJPR"/>
      <point x="190" y="230" name="MQXZYUZI"/>
      <point x="172" y="158" type="curve" name="CYHWFXGI"/>
      <point x="167" y="176" name="CQWWWDUW"/>
      <point x="165" y="196" name="WRAXDLRZ"/>
      <point x="165" y="215" type="curve" name="KYLEVNPV"/>
      <point x="165" y="215" name="VLOVCGNL"/>
      <point x="165" y="215" name="RYYAEASW"/>
    </contour>
    <contour>
      <point x="254" y="68" type="curve" name="JJWXBOIG"/>
      <point x="252" y="68" name="BBRLSHDB"/>
      <point x="251" y="68" name="NEIPKMAS"/>
      <point x="250" y="68" type="curve" name="PKAVZDLB"/>
      <point x="261" y="148" name="YGQZIRAR"/>
      <point x="284" y="217" name="GKEFCKMI"/>
      <point x="317" y="267" type="curve" name="EFGMBUGT"/>
      <point x="319" y="253" name="KSKJYVHO"/>
      <point x="321" y="235" name="VDPZRLET"/>
      <point x="321" y="215" type="curve" smooth="yes" name="BQMZWRQW"/>
      <point x="321" y="137" name="PKMTYGSZ"/>
      <point x="300" y="68" name="IHSJCXXC"/>
      <point x="254" y="68" type="curve" name="FQPTDANH"/>
      <point x="254" y="68" name="HOYSZISG"/>
      <point x="254" y="68" name="RFLNEIKC"/>
    </contour>
  </outline>
</glyph>
<glyph name="circumflex" format="2">
  <advance width="398"/>
  <unicode hex="02C6"/>
  <anchor x="-82.0" y="517" name="top"/>
  <anchor x="198.0" y="517" name="center"/>
  <outline>
    <contour>
      <point x="149" y="434" type="curve" name="UKXVJAQE"/>
      <point x="181" y="445" name="KNQDVBNZ"/>
      <point x="216" y="452" name="ELJLROQX"/>
      <point x="253" y="455" type="curve" name="GPIORJUL"/>
      <point x="249" y="506" name="RGDQBEPQ"/>
      <point x="252" y="550" name="LUZOUQGR"/>
      <point x="263" y="580" type="curve" name="DSFVSTEF"/>
      <point x="276" y="550" name="MDUHWRCP"/>
      <point x="299" y="506" name="LWWEZNOO"/>
      <point x="327" y="455" type="curve" name="IEALSXMQ"/>
      <point x="369" y="452" name="MSFREYGF"/>
      <point x="414" y="445" name="FOIDDUZU"/>
      <point x="461" y="434" type="curve" name="KOTIYKVA"/>
      <point x="387" y="560" name="VXKZDIAI"/>
      <point x="350" y="632" name="YSIFAMDY"/>
      <point x="354" y="648" type="curve" name="AYWOCWGL"/>
      <point x="310" y="653" name="YIQLJJZK"/>
      <point x="268" y="653" name="WZBBYYJC"/>
      <point x="231" y="648" type="curve" name="JSJLGCUN"/>
      <point x="165" y="632" name="SHOMMBNL"/>
      <point x="137" y="560" name="APFKIAHA"/>
    </contour>
  </outline>
</glyph>
<glyph name="bullet" format="2">
  <advance width="390"/>
  <unicode hex="2022"/>
  <outline>
    <contour>
      <point x="300" y="-26" type="curve" name="BCFDCCRP"/>
      <point x="372" y="-26" name="KUOSREVV"/>
      <point x="394" y="114" name="UUPRUGGE"/>
      <point x="394" y="216" type="curve" smooth="yes" name="FCIJGGWA"/>
      <point x="395" y="316" name="ZJNOSYBX"/>
      <point x="372" y="346" name="WAYAWEIX"/>
      <point x="300" y="346" type="curve" smooth="yes" name="UQDDRVLY"/>
      <point x="225" y="346" name="CBQATSDI"/>
      <point x="126" y="316" name="RRHSVSGM"/>
      <point x="126" y="216" type="curve" smooth="yes" name="XFDHBLRZ"/>
      <point x="125" y="114" name="BJYOEEYT"/>
      <point x="225" y="-26" name="JZXLMMKS"/>
      <point x="300" y="-26" type="curve" name="TYZTIZCE"/>
      <point x="300" y="-26" name="BMKHWZVV"/>
      <point x="300" y="-26" name="XJDTGIHQ"/>
    </contour>
  </outline>
</glyph>
<glyph name="ring.cap" format="2">
  <advance width="296"/>
  <anchor x="-62.0" y="680.0" name="top"/>
  <anchor x="148.0" y="680.0" name="center"/>
  <outline>
    <contour>
      <point x="246" y="565" type="curve" name="BJJNJWAB"/>
      <point x="306" y="565" name="PIUUASVZ"/>
      <point x="319" y="665" name="FWGNPPDU"/>
      <point x="320" y="745" type="curve" smooth="yes" name="MKJAMXAS"/>
      <point x="321" y="823" name="JDZBMDLN"/>
      <point x="306" y="841" name="VQQZQFEH"/>
      <point x="246" y="841" type="curve" smooth="yes" name="NREHAEPT"/>
      <point x="188" y="841" name="AYSRKAKA"/>
      <point x="117" y="823" name="VMMECQEP"/>
      <point x="116" y="745" type="curve" smooth="yes" name="NSVKTETU"/>
      <point x="115" y="665" name="AWRAIQDK"/>
      <point x="188" y="565" name="HEXMIYLN"/>
      <point x="246" y="565" type="curve" name="MVAPWYSK"/>
      <point x="246" y="565" name="JPOJJGEM"/>
      <point x="246" y="565" name="HUHELYJT"/>
    </contour>
    <contour>
      <point x="214" y="694" type="curve" name="GDHGJWWX"/>
      <point x="191" y="694" name="BQFVWDPF"/>
      <point x="172" y="723" name="DYCEDNXF"/>
      <point x="172" y="757" type="curve" smooth="yes" name="FPOZGPYL"/>
      <point x="172" y="791" name="MEWWAPNC"/>
      <point x="191" y="806" name="QAWUIXRM"/>
      <point x="214" y="806" type="curve" smooth="yes" name="EIREWFRJ"/>
      <point x="237" y="806" name="LQAQWTTV"/>
      <point x="248" y="791" name="QHAORNFC"/>
      <point x="248" y="757" type="curve" smooth="yes" name="QIYRVKYJ"/>
      <point x="248" y="723" name="MGESFUQN"/>
      <point x="237" y="694" name="YKOAUPLK"/>
      <point x="214" y="694" type="curve" name="TTWPKQNI"/>
      <point x="214" y="694" name="YDTGJBVI"/>
      <point x="214" y="694" name="WXZEUTHF"/>
    </contour>
  </outline>
</glyph>
<glyph name="tilde.cap" format="2">
  <advance width="399"/>
  <anchor x="-83.0" y="680.0" name="top"/>
  <anchor x="199.0" y="680.0" name="center"/>
  <outline>
    <contour>
      <point x="375" y="804" type="curve" name="TSIJWQWE"/>
      <point x="348" y="792" name="OBJIGLNL"/>
      <point x="337" y="773" name="EZSWNTAU"/>
      <point x="319" y="774" type="curve" smooth="yes" name="GQSXZCYG"/>
      <point x="285" y="777" name="WIOOTESK"/>
      <point x="285" y="813" name="GEEUSHCE"/>
      <point x="232" y="807" type="curve" smooth="yes" name="QLWIHQKI"/>
      <point x="178" y="800" name="NWGNDJOE"/>
      <point x="69" y="839" name="BHLCCWBM"/>
      <point x="148" y="581" type="curve" name="KGCIAJBV"/>
      <point x="168" y="589" name="GSUXUWUB"/>
      <point x="190" y="594" name="XYTECLWF"/>
      <point x="213" y="598" type="curve" name="IIWNBDUX"/>
      <point x="186" y="688" name="AILXTPMM"/>
      <point x="198" y="703" name="TPMNCSJL"/>
      <point x="214" y="704" type="curve" smooth="yes" name="JMONTBWQ"/>
      <point x="244" y="707" name="GHWZVJFV"/>
      <point x="296" y="599" name="CYGWDRDP"/>
      <point x="356" y="593" type="curve" smooth="yes" name="JQMNNIFS"/>
      <point x="421" y="586" name="LGQZYNDB"/>
      <point x="384" y="753" name="BXHYKZKD"/>
      <point x="463" y="787" type="curve" name="NXSRDZJO"/>
      <point x="432" y="795" name="VMQNIPFY"/>
      <point x="403" y="800" name="CPCJAPIL"/>
    </contour>
  </outline>
</glyph>
<glyph name="u.alt" format="2">
  <advance width="413"/>
  <outline>
    <contour>
      <point x="437" y="142" type="curve" name="EFKNEMME"/>
      <point x="431" y="247" name="EHJKFBCS"/>
      <point x="456" y="312" name="RUPCOUWE"/>
      <point x="512" y="331" type="curve" name="VEXOIECN"/>
      <point x="466" y="342" name="KXOHNRNU"/>
      <point x="420" y="350" name="TIKPVBBR"/>
      <point x="379" y="353" type="curve" name="DHHLXKAT"/>
      <point x="324" y="334" name="GWXLNIYY"/>
      <point x="299" y="271" name="TFRBGGBZ"/>
      <point x="304" y="166" type="curve" smooth="yes" name="EDHRZGTQ"/>
      <point x="307" y="107" name="YPKYQKJT"/>
      <point x="292" y="64" name="QJAKZXVC"/>
      <point x="258" y="64" type="curve" smooth="yes" name="UPMXUKBM"/>
      <point x="225" y="64" name="OWIJJSED"/>
      <point x="193" y="107" name="FSSGUGOT"/>
      <point x="191" y="166" type="curve" smooth="yes" name="RKIWYTFQ"/>
      <point x="186" y="270" name="WVISAYUN"/>
      <point x="210" y="334" name="TLNQWBEX"/>
      <point x="266" y="353" type="curve" name="VSXPWIMP"/>
      <point x="229" y="350" name="NZZUQRRO"/>
      <point x="195" y="342" name="YOYTKNZD"/>
      <point x="164" y="331" type="curve" name="LRUEGDNB"/>
      <point x="109" y="312" name="KZHGDATP"/>
      <point x="83" y="247" name="CAQMQDUN"/>
      <point x="89" y="140" type="curve" smooth="yes" name="AUVOGAVC"/>
      <point x="99" y="-18" name="DIQWGZLV"/>
      <point x="220" y="-178" name="VXQPUUZL"/>
      <point x="319" y="-178" type="curve" smooth="yes" name="YMLZVQXL"/>
      <point x="418" y="-178" name="WYPULLGU"/>
      <point x="445" y="-16" name="EKIAWYPW"/>
      <point x="437" y="142" type="curve" name="TPTJTQFF"/>
      <point x="437" y="142" name="CBBPDSHA"/>
      <point x="437" y="142" name="LCEFTFRM"/>
    </contour>
  </outline>
</glyph>
